<?xml version="1.0" encoding="UTF-8"?>
<svg id="Laag_2" data-name="Laag 2" xmlns="http://www.w3.org/2000/svg" viewBox="0 0 186.8 186.8">
  <defs>
    <style>
      .cls-1 {
        fill: #fee447;
      }
    </style>
  </defs>
  <g id="Laag_1-2" data-name="Laag 1">
    <g>
      <circle class="cls-1" cx="93.4" cy="93.4" r="93.4"/>
      <g>
        <path d="M56.6,59.67c1.78,1.72,2,4.41.73,6.54-2.12,3.56-2.88,7.73-2.16,12.09.6,3.76,2.52,7.3,5.54,10.25l17.27,16.85,16.15,15.94c2.2,2.18,2.22,5.73.04,7.93h0c-2.17,2.18-5.7,2.21-7.89.05l-33.27-32.67c-5.08-4.96-8.29-11.31-9.05-17.87-.88-6.47.58-13.01,4.04-18.62,1.75-2.83,5.66-3.34,8.05-1.02l.56.54Z"/>
        <path d="M130.16,129.62c2.39,2.32,6.3,1.81,8.05-1.02,3.46-5.61,4.91-12.14,4.04-18.63-.76-6.56-3.97-12.9-9.05-17.86l-33.27-32.67c-2.2-2.16-5.72-2.13-7.89.05h0c-2.18,2.2-2.17,5.75.04,7.93l16.15,15.94,17.27,16.85c3.02,2.95,4.94,6.49,5.54,10.25.72,4.36-.04,8.53-2.16,12.09-1.27,2.13-1.04,4.81.73,6.54l.56.54Z"/>
        <path d="M78.91,138.67c7.02,6.21,15.32,5.21,20.74,2.21,5.42-3,10.65-9.51,9.12-18.77-.6-3.76-2.52-7.3-5.54-10.25l-28.7-28.01c-5.08-4.96-8.3-11.31-9.05-17.87-1.1-8.14,1.53-16.5,7.23-22.9,5.71-6.41,13.72-9.95,21.9-9.85,7.13,0,14.02,2.62,19.36,7.35l12.03,10.96c2.32,2.11,2.39,5.73.17,7.94h0c-2.05,2.04-5.33,2.13-7.5.22l-3.33-2.95c-4.08-3.62-8.69-7.7-8.79-7.79-7.03-6.21-15.32-5.22-20.75-2.22-5.42,3-10.65,9.51-9.12,18.77.6,3.76,2.52,7.3,5.54,10.25l28.69,28.01c5.08,4.96,8.3,11.31,9.05,17.87,1.42,12.34-4.51,23.59-15.49,29.34-4.44,2.33-9.14,3.47-13.78,3.47-6.88,0-13.63-2.51-19.21-7.4l-12.3-10.91c-2.23-1.98-2.49-5.38-.58-7.67h0c1.99-2.38,5.55-2.67,7.88-.62l12.4,10.83Z"/>
      </g>
    </g>
  </g>
</svg>