<?xml version="1.0" encoding="UTF-8"?>
<svg id="Laag_2" data-name="Laag 2" xmlns="http://www.w3.org/2000/svg" viewBox="0 0 594.86 186.8">
  <defs>
    <style>
      .cls-1 {
        fill: #fee447;
      }
    </style>
  </defs>
  <g id="Laag_1-2" data-name="Laag 1">
    <g>
      <circle class="cls-1" cx="93.4" cy="93.4" r="93.4"/>
      <g>
        <path d="M56.6,59.67c1.78,1.72,2,4.41.73,6.54-2.12,3.56-2.88,7.73-2.16,12.09.6,3.76,2.52,7.3,5.54,10.25l17.27,16.85,16.15,15.94c2.2,2.18,2.22,5.73.04,7.93h0c-2.17,2.18-5.7,2.21-7.89.05l-33.27-32.67c-5.08-4.96-8.29-11.31-9.05-17.87-.88-6.47.58-13.01,4.04-18.62,1.75-2.83,5.66-3.34,8.05-1.02l.56.54Z"/>
        <path d="M130.16,129.62c2.39,2.32,6.3,1.81,8.05-1.02,3.46-5.61,4.91-12.14,4.04-18.63-.76-6.56-3.97-12.9-9.05-17.86l-33.27-32.67c-2.2-2.16-5.72-2.13-7.89.05h0c-2.18,2.2-2.17,5.75.04,7.93l16.15,15.94,17.27,16.85c3.02,2.95,4.94,6.49,5.54,10.25.72,4.36-.04,8.53-2.16,12.09-1.27,2.13-1.04,4.81.73,6.54l.56.54Z"/>
        <path d="M78.91,138.67c7.02,6.21,15.32,5.21,20.74,2.21,5.42-3,10.65-9.51,9.12-18.77-.6-3.76-2.52-7.3-5.54-10.25l-28.7-28.01c-5.08-4.96-8.3-11.31-9.05-17.87-1.1-8.14,1.53-16.5,7.23-22.9,5.71-6.41,13.72-9.95,21.9-9.85,7.13,0,14.02,2.62,19.36,7.35l12.03,10.96c2.32,2.11,2.39,5.73.17,7.94h0c-2.05,2.04-5.33,2.13-7.5.22l-3.33-2.95c-4.08-3.62-8.69-7.7-8.79-7.79-7.03-6.21-15.32-5.22-20.75-2.22-5.42,3-10.65,9.51-9.12,18.77.6,3.76,2.52,7.3,5.54,10.25l28.69,28.01c5.08,4.96,8.3,11.31,9.05,17.87,1.42,12.34-4.51,23.59-15.49,29.34-4.44,2.33-9.14,3.47-13.78,3.47-6.88,0-13.63-2.51-19.21-7.4l-12.3-10.91c-2.23-1.98-2.49-5.38-.58-7.67h0c1.99-2.38,5.55-2.67,7.88-.62l12.4,10.83Z"/>
      </g>
    </g>
    <g>
      <path d="M224.36,116.67l13.4-4.38c3.17,7.92,9.74,11.45,15.59,11.45,4.51,0,10.72-1.95,10.72-8.16,0-5.72-5.6-7.43-10.84-9.01l-7.07-2.07c-7.79-2.31-18.63-7.19-18.63-19.97s11.2-20.58,24.6-20.58,22.41,7.31,25.33,16.93l-13.4,4.38c-1.83-4.99-5.73-9.5-12.55-9.5-5.48,0-9.5,3.05-9.5,7.67,0,6.09,7.31,8.4,13.03,9.99l5.6,1.58c6.7,1.95,18.76,5.48,18.76,19.12,0,12.79-10.23,21.56-25.94,21.56-14.86,0-25.7-7.67-29.11-19Z"/>
      <path d="M300,34.7c5.24,0,9.26,4.26,9.26,9.26,0,5.36-4.02,9.62-9.26,9.62s-9.5-4.26-9.5-9.62c0-4.99,4.02-9.26,9.5-9.26ZM292.69,65.88h14.37v67.72h-14.37v-67.72Z"/>
      <path d="M320.7,99.99c0-20.83,14.01-36.05,33.74-36.05,15.71,0,32.15,9.87,32.15,35.44v4.26h-51.28c1.1,12.06,9.5,19.12,20.1,19.12,8.41,0,14.98-4.99,18.15-12.79l13.52,5.36c-4.63,11.94-16.32,20.34-31.67,20.34-19.85,0-34.71-14.13-34.71-35.69ZM371.97,93.29c-.97-12.3-9.26-16.93-17.66-16.93-9.99,0-16.56,6.94-18.27,16.93h35.93Z"/>
      <path d="M391.46,65.88h15.71c6.21,16.69,11.69,32.88,17.9,50.67h.24c6.09-17.78,11.57-33.98,17.66-50.67h15.35l-24.72,67.72h-17.29l-24.85-67.72Z"/>
      <path d="M462.83,116.55c0-12.79,10.48-17.9,22.66-20.46,14.37-3.04,20.46-3.53,20.46-9.87,0-5.72-4.87-10.47-12.67-10.47-6.82,0-12.42,3.9-14.74,11.81l-13.52-4.63c4.14-13.76,16.32-19,28.99-19,15.35,0,26.67,7.67,26.67,23.63v24.85c0,11.21.85,15.83,2.19,21.19h-14.49c-.97-3.41-1.34-6.58-1.34-10.47h-.25c-3.78,7.55-11.69,12.54-21.56,12.54-11.57,0-22.41-6.21-22.41-19.12ZM489.14,124.47c10.47,0,16.93-9.26,16.93-16.81v-6.58c-3.53,1.83-8.77,3.29-14.01,4.38-6.09,1.34-13.4,4.02-13.4,10.6,0,5.36,4.26,8.4,10.47,8.4Z"/>
      <path d="M552.71,99.38v-.24l-22.65-33.25h16.81l15.59,24.12h.24l15.59-24.12h16.32l-22.53,33.25v.24c7.55,11.33,15.1,22.78,22.78,34.23h-16.44c-5.24-8.04-10.47-16.08-15.71-24.24h-.24c-5.24,8.16-10.47,16.2-15.71,24.24h-16.69c7.55-11.45,15.1-22.9,22.65-34.23Z"/>
    </g>
  </g>
</svg>