<?xml version="1.0" encoding="UTF-8" standalone="no"?> <svg xmlns:inkscape="http://www.inkscape.org/namespaces/inkscape" xmlns:sodipodi="http://sodipodi.sourceforge.net/DTD/sodipodi-0.dtd" xmlns="http://www.w3.org/2000/svg" xmlns:svg="http://www.w3.org/2000/svg" width="200" height="200" viewBox="0 0 52.916665 52.916666" version="1.1" id="svg1"><defs id="defs1"></defs><g id="layer1"><g id="Fill" opacity="1" transform="matrix(0.15907102,0,0,0.16053546,-505.4001,-418.29254)"><path id="STROKE_abba4bd2-ed4d-4a86-8784-75b39b2c543c" opacity="1" fill="#ded8c9" stroke="#ded8c9" stroke-width="0.5" stroke-opacity="1" stroke-linecap="round" stroke-linejoin="round" d="m 3283.384,2855.608 q 0,-0.038 -0.01,-0.515 0.294,0.679 -0.011,7.388 -0.305,6.709 -1.893,12.941 -1.588,6.233 -2.555,10.523 -0.968,4.29 -2.217,6.972 -1.25,2.683 -2.421,7.312 -1.172,4.629 -1.89,8.013 -0.717,3.385 -0.988,4.863 -0.271,1.478 -0.282,1.801 -0.011,0.323 -0.212,0.886 -0.2,0.562 -0.295,0.852 -0.095,0.29 -0.09,0.263 0.01,-0.027 -0.352,0.645 -0.358,0.673 -0.373,0.547 -0.015,-0.125 0.257,0.123 0.272,0.248 -4.583,2.517 -1.044,-0.954 -0.816,-0.678 -0.173,-0.081 -0.873,-0.291 -0.012,-0.868 -0.012,-0.855 -0.02,-1.744 -0.026,-1.447 -0.01,0.296 0.044,-0.152 0.05,-0.447 0.201,-2.585 0.152,-2.138 1.003,-6.21 0.851,-4.072 2.933,-10.325 2.082,-6.254 3.463,-11.379 1.382,-5.125 2.749,-11.041 1.368,-5.917 4.393,-11.951"></path><path id="STROKE_e26d3cdb-6be7-4082-8117-1285a93a2b0b" opacity="1" fill="#ded8c9" stroke="#ded8c9" stroke-width="0.5" stroke-opacity="1" stroke-linecap="round" stroke-linejoin="round" d="m 3343.99,2875.684 q 0,10e-4 0.436,0.971 0.436,0.97 0.138,0.392 0.16,0.682 0.893,4.688 0.732,4.007 0.817,6.031 0.084,2.025 -0.446,3.096 -0.531,1.072 -1.093,1.413 -0.562,0.341 -1.528,0.4 -0.965,0.058 -1.856,-3.488"></path><path id="STROKE_bc2d4a47-89c8-482e-9a9f-d40a407faa09" opacity="1" fill="#ded8c9" stroke="#ded8c9" stroke-width="0.5" stroke-opacity="1" stroke-linecap="round" stroke-linejoin="round" d="m 3404.454,2859.772 q 0.242,0.495 2.256,4.187 2.014,3.693 5.659,11.175 3.644,7.482 3.928,9.009 0.283,1.528 1.206,4.862 0.923,3.334 3.163,8.434 2.241,5.101 2.876,6.683 0.636,1.581 1.329,3.718 0.693,2.137 1.216,3.105 0.524,0.967 1.07,2.03 0.546,1.062 2.058,2.305 1.512,1.243 2.334,1.212 0.823,-0.031 0.759,0.017 -0.064,0.047 -0.085,0.042 -0.021,-0.01 0.742,-0.025 0.764,-0.02 1.085,-0.069 0.322,-0.051 0.568,-0.428 0.246,-0.377 0.039,-0.053 -0.206,0.323 0,0.074 0.21,-0.249 0.071,-0.332 -0.138,-0.083 -0.158,0.01 -0.02,0.091 0.691,-0.995 0.711,-1.085 0.092,-2.498 -0.619,-1.413 -1.575,-4.735 -0.957,-3.323 -3.312,-10.988 -2.355,-7.666 -4.798,-15.2 -2.444,-7.534 -5.066,-12.33 -2.623,-4.795 -3.101,-5.684 -0.478,-0.888 -0.328,-0.676 0.15,0.212 -0.128,-0.255 -0.279,-0.466 -0.767,-1.343 -0.487,-0.877 -1.531,-2.477 -1.043,-1.6 -1.471,-2.323 -0.427,-0.722 -0.269,-0.376 0.159,0.347 -0.244,-0.411 l -0.386,0.264 q -0.639,0.469 -0.911,0.664 -0.271,0.195 -0.39,0.246 -0.596,0.349 -0.868,0.494 -0.273,0.145 -0.336,0.162 -0.612,0.249 -0.679,0.268 -0.64,0.273 -0.95,0.401 -0.593,0.367 -0.733,0.436 -0.736,0.475 -1.032,0.66 -0.297,0.185 -0.623,0.326 -0.451,0.219 -0.687,0.292 -0.235,0.073 -0.443,0.086"></path><path id="STROKE_94318bb3-e20a-4e68-b561-c28712bcdd71" opacity="1" fill="#ded8c9" stroke="#ded8c9" stroke-width="0.5" stroke-opacity="1" stroke-linecap="round" stroke-linejoin="round" d="m 3402.847,2854.511 v -0.017 l 0.016,0.01"></path><path id="STROKE_7d03d5cc-1c8f-4545-b5a0-22a7089c976d" opacity="1" fill="#ded8c9" stroke="#ded8c9" stroke-width="0.5" stroke-opacity="1" stroke-linecap="round" stroke-linejoin="round" d="m 3269.644,2921.491 q -1.278,0.404 -0.855,0.269 -0.131,0 -0.515,0.01 0,0.046 0,0.182 -0.449,0.034 0.816,0.088 1.264,0.054 2.347,-0.436 1.082,-0.49 3.208,-1.351 2.125,-0.862 4.313,-2.413 2.188,-1.551 3.891,-2.945 1.702,-1.394 3.385,-2.21 1.682,-0.815 3.346,-1.545 1.664,-0.729 1.032,-0.191 -0.631,0.537 2.117,-1.668 2.748,-2.206 4.216,-4.062 1.467,-1.856 2.055,-2.701 0.588,-0.844 0.452,-0.694 -0.135,0.15 -0.098,-0.217 0.037,-0.367 0,-0.865 -0.036,-0.499 -0.039,-0.365 0,0.133 0,-0.02 0,-0.154 -0.371,-0.547 -0.375,-0.393 -0.553,-0.623 -0.177,-0.23 -0.168,-0.223 0.014,0.047 0.077,0.05 0.063,0 0.065,-0.01 0,-0.011 -0.645,-0.233 -0.648,-0.223 -0.975,-0.335 -0.326,-0.113 -0.873,-0.301 -0.547,-0.188 -0.589,-0.193 -0.041,-0.01 -0.337,-0.026 -0.296,-0.02 -0.295,-0.046 0,-0.025 -0.998,0.047 -0.999,0.071 -1.613,0.019 -0.614,-0.053 -0.565,0 0.049,0.052 0.079,-0.115 0.031,-0.167 -0.942,0.744 -0.973,0.91 -1.828,1.645 -0.855,0.734 -1.045,0.828 -0.189,0.094 -0.655,0.429 -0.467,0.334 -0.587,0.429 -0.12,0.095 -0.128,0.106 -0.01,0.011 -0.066,0.048 -0.058,0.036 0.084,-0.063 0.142,-0.1 -0.224,0.177 -0.365,0.277 -0.893,0.684 -0.528,0.406 -0.551,0.428 -0.023,0.022 -0.039,-0.045 -0.016,-0.068 -1.248,0.923 -1.232,0.992 -1.649,1.455 -0.418,0.463 -0.32,0.368 0.097,-0.096 -0.709,0.37 -0.807,0.466 -1.067,0.452 -0.261,-0.013 -0.027,0.025 0.233,0.037 -0.46,-0.038 -0.692,-0.075 -1.247,0.392 -0.555,0.466 -1.278,1.963 0,-0.046 0.075,-0.441"></path><path id="STROKE_200c2cc0-ecae-4e59-9f0f-474e1ff53ea1" opacity="1" fill="#ded8c9" stroke="#ded8c9" stroke-width="0.5" stroke-opacity="1" stroke-linecap="round" stroke-linejoin="round" d="m 3416.875,2907.296 q 0.041,-10e-4 0.263,0 0.413,0.293 -1.26,-1.992 -1.672,-2.285 -3.755,-4.418 -2.083,-2.132 -3.575,-3.23 -1.493,-1.098 -4.557,-2.626 -3.064,-1.527 -4.877,-2.348 -1.813,-0.821 -2.548,-1.284 -0.735,-0.465 -1.004,-0.597 -0.268,-0.133 -0.312,-0.108 -0.044,0.026 0.096,-0.021 0.141,-0.046 -1.451,-0.73 -1.593,-0.685 -3.529,-0.886 -0.087,0.436 -0.071,0.137 0.017,-0.299 -0.088,0.29 -0.104,0.59 -0.092,1.688 0.012,1.098 0.251,1.492 0.24,0.393 0.291,0.521 0.051,0.128 -0.091,-0.18 -0.141,-0.307 0.541,0.978 0.682,1.284 1.214,2.379 0.532,1.095 1.146,2.12 0.615,1.025 0.866,1.312 0.252,0.287 0.219,0.24 -0.033,-0.047 -0.14,-0.066 -0.106,-0.018 0.633,0.432 0.74,0.45 1.576,1.087 0.836,0.636 1.421,1.494 0.586,0.857 0.545,0.716 -0.041,-0.142 0.586,1.016 0.628,1.157 2.615,2.756 1.987,1.599 3.422,2.794 1.436,1.194 4.244,3.037 2.809,1.843 4.994,3.334 2.185,1.491 4.299,1.697 0.042,0.129 0.084,0.257"></path><path id="STROKE_12c239f5-f3d5-4000-b434-e155e896228a" opacity="1" fill="#ded8c9" stroke="#ded8c9" stroke-width="0.5" stroke-opacity="1" stroke-linecap="round" stroke-linejoin="round" d="m 3343.148,2894.902 q 1.623,-0.295 1.068,-0.181 1.771,-0.571 1.494,-0.49 -0.277,0.081 -0.024,0.032 0.253,-0.049 0.417,-0.093 0.165,-0.044 0.424,-0.059 0.259,-0.016 0.93,-0.038 0.671,-0.022 0.578,0.034 -0.094,0.056 -0.071,-0.184 0.024,-0.241 0.75,1.017 0.726,1.258 0.797,2.246 0.071,0.987 -0.052,1.604 -0.122,0.616 -0.776,1.18 -0.654,0.563 -0.616,0.382 0.038,-0.182 0.043,0.056 0.01,0.238 -1.825,1.214 -1.83,0.976 -4.82,0.538 -2.99,-0.438 -4.65,-1.323 -1.66,-0.885 -2.252,-1.17 -0.591,-0.284 -1.055,-0.671 -0.465,-0.387 -1.04,-0.946 0.041,0 0.605,-0.098"></path><path id="STROKE_54c1d955-948f-45e1-bbda-251bad6b17db" opacity="1" fill="#ffe446" stroke="#ffe446" stroke-width="0.5" stroke-opacity="1" stroke-linecap="round" stroke-linejoin="round" d="m 3364.563,2714.631 q 0.688,-0.328 0.976,-0.325 0.288,0 0.218,0 -0.07,0 -0.101,0.027 1.073,0.01 0.723,0 0.78,0.054 0.822,0.05 0.042,0 0.023,0.099 0.669,0.412 0.574,0.355 0.287,0.228 1.133,0.95 0.845,0.723 1.396,1.253 0.551,0.53 0.915,0.955 0.364,0.424 0.461,0.577 0.096,0.153 0.329,0.522 0.232,0.369 0.186,0.143 -0.046,-0.225 0.606,1.029 0.653,1.254 1.124,2.596 0.471,1.342 1.157,2.487 0.687,1.146 0.953,1.487 0.266,0.341 0.498,0.816 0.231,0.476 0.52,1.137 0.289,0.662 0.6,2.527 0.312,1.864 0.485,2.757 0.174,0.893 0.34,1.56 0.166,0.667 0.206,0.997 0.039,0.33 0.026,0.4 -0.012,0.071 0.052,-0.026 0.065,-0.097 0.17,2.144 0.106,2.24 0.067,3.788 -0.038,1.549 -0.036,2.18 0,0.632 -0.032,1.137 -0.034,0.506 -0.041,1.36 -0.01,0.853 -0.028,1.12 -0.022,0.266 -0.124,0.68 -0.102,0.415 -0.172,0.79 -0.071,0.374 -0.098,0.533 -0.028,0.158 -0.064,0.634 -0.036,0.476 -0.042,0.681 -0.01,0.206 0.015,0.152 0.022,-0.053 -0.074,0.351 -0.096,0.403 -0.333,2.479 -0.237,2.076 -0.423,4.424 -0.187,2.348 -0.32,3.434 -0.134,1.087 -0.326,1.742 -0.191,0.655 -0.253,0.793 -0.062,0.138 -0.161,0.476 -0.1,0.337 -0.303,0.766 -0.203,0.429 -0.255,0.484 -0.052,0.055 -0.043,0.037 0.01,-0.019 -0.01,0.01 -0.017,0.027 -0.018,0.027 0,0 -0.4,0.882 -0.4,0.882 -0.385,0.873 0.015,-0.01 0.06,-0.044 -0.058,0.412 -0.089,0.441 -0.031,0.03 0,-0.028 0.029,-0.058 -0.249,0.381 -0.278,0.439 -0.329,0.489 -0.052,0.049 -0.016,0.01 0.035,-0.04 -0.195,0.319 -0.231,0.36 -0.412,0.839 -0.181,0.48 -0.339,0.792 -0.159,0.312 -0.432,0.805 -0.273,0.492 -0.454,0.827 -0.181,0.334 -1.35,1.384 -1.17,1.05 -1.903,1.978 -0.734,0.927 -0.976,1.222 -0.242,0.294 -0.595,0.526 -0.352,0.232 -0.46,0.264 -0.108,0.033 0.048,-0.034 0.157,-0.068 -0.524,0.151 -0.682,0.219 -1.146,0.413 -0.464,0.195 -0.864,0.477 -0.401,0.283 -0.484,0.348 -0.082,0.066 -0.089,0.057 -0.01,-0.01 0.075,-0.074 0.081,-0.065 -0.415,0.529 -0.495,0.594 -1.918,1.561 -1.424,0.966 -2.579,1.539 -1.156,0.573 -1.696,0.92 -0.54,0.347 -0.599,0.336 -0.058,-0.011 0.031,-0.018 0.09,-0.01 -0.458,0.146 -0.549,0.152 -1.377,0.297 -0.828,0.145 -1.211,0.491 -0.382,0.346 -0.454,0.354 -0.071,0.01 0.024,0.037 0.096,0.031 -0.603,0.421 -0.698,0.391 -1.001,0.4 -0.304,0.01 -0.562,0.031 -0.259,0.022 -0.342,0.037 -0.084,0.014 -0.061,0.013 0.024,0 -0.07,0.014 -0.095,0.015 0.017,0 0.111,-0.015 -0.22,0.111 -0.331,0.125 -1.024,0.169 -0.693,0.044 -0.565,0.026 0.126,-0.017 0.129,-0.01 0,0.01 -0.378,0 -0.38,0 -0.704,0 -0.325,0 -0.435,0 -0.11,0 0,-0.022 0.111,-0.025 -0.362,0.015 -0.473,0.041 -0.492,0.017 -0.019,-0.024 -0.03,0.041 -0.012,0.065 -0.811,0.223 -0.8,0.158 -1.637,0.272 -0.838,0.115 -1.225,0.214 -0.386,0.1 -1.587,-0.044 -1.201,-0.145 -1.629,-0.306 -0.428,-0.162 -0.452,-0.179 -0.024,-0.018 -0.649,-0.241 -0.624,-0.223 -1.184,-0.286 -0.56,-0.063 -0.862,-0.051 -0.302,0.013 -0.692,-0.028 -0.39,-0.04 -0.48,-0.053 -0.091,-0.012 -0.312,-0.073 -0.222,-0.062 -0.228,-0.067 -0.01,0 -1.215,-0.172 -1.208,-0.167 -1.886,-0.378 -0.678,-0.212 -1.023,-0.355 -0.344,-0.143 -0.875,-0.296 -0.531,-0.154 -0.46,-0.141 0.071,0.013 -0.112,-0.01 -0.182,-0.018 -1.269,-0.423 -1.087,-0.405 -1.926,-0.783 -0.84,-0.379 -1.407,-0.791 -0.567,-0.412 -0.537,-0.395 0.03,0.016 -0.086,-0.057 -0.116,-0.073 -0.269,-0.149 -0.152,-0.077 -0.54,-0.279 -0.387,-0.202 -0.965,-0.54 -0.579,-0.338 -0.899,-0.525 -0.32,-0.186 -0.132,-0.088 0.189,0.099 -0.2,-0.096 -0.388,-0.195 -0.9,-0.45 -0.511,-0.254 -0.894,-0.543 -0.383,-0.289 -0.709,-0.511 -0.326,-0.222 -0.328,-0.223 0,0 -0.588,-0.385 -0.586,-0.384 -0.445,-0.278 -0.754,-0.567 -0.612,-0.467 0.141,0.1 0.068,0.037 -0.073,-0.062 -0.458,-0.512 -0.384,-0.45 -0.252,-0.297 0.131,0.153 0.02,0.015 -0.111,-0.138 -0.427,-0.493 -0.316,-0.355 -0.278,-0.322 0.038,0.034 -0.077,-0.095 -0.115,-0.13 -0.311,-0.432 -0.196,-0.302 -1.021,-1.398 -0.824,-1.097 -1.218,-1.583 -0.395,-0.487 -0.855,-1.003 -0.459,-0.515 -0.762,-0.944 -0.302,-0.428 -0.283,-0.389 0.019,0.038 0.038,0.053 0.02,0.015 -0.285,-0.356 -0.305,-0.371 -0.373,-0.454 -0.068,-0.083 -0.255,-0.298 -0.187,-0.214 -0.364,-0.417 -0.177,-0.205 -0.16,-0.186 0.018,0.018 -0.01,-0.01 -0.023,-0.026 0.036,0.031 0.059,0.058 -0.318,-0.356 -0.377,-0.414 -0.445,-0.475 -0.069,-0.06 -0.024,-0.029 0.044,0.031 -0.088,-0.045 -0.132,-0.077 -0.53,-0.518 -0.397,-0.443 -0.52,-0.647 -0.123,-0.205 -0.23,-0.371 -0.106,-0.167 -0.181,-0.292 -0.074,-0.126 -0.074,-0.127 0,0 -0.3,-0.374 -0.299,-0.372 -0.477,-0.603 -0.177,-0.232 -0.339,-0.441 -0.163,-0.21 -0.136,-0.187 0.027,0.023 0.038,0.025 0.011,0 -0.143,-0.15 -0.154,-0.152 -0.952,-1.718 -0.797,-1.565 -1.182,-2.507 -0.385,-0.942 -0.586,-1.409 -0.201,-0.467 -0.283,-0.685 -0.082,-0.219 -0.082,-0.299 0,-0.079 -0.219,-0.985 -0.218,-0.906 -0.575,-1.81 -0.356,-0.904 -0.512,-1.343 -0.155,-0.439 -0.204,-0.639 -0.048,-0.2 -0.08,-0.312 -0.032,-0.113 -0.033,-0.27 0,-0.156 -0.147,-0.984 -0.146,-0.827 -0.282,-1.238 -0.135,-0.41 -0.193,-0.61 -0.057,-0.2 -0.054,-0.328 0,-0.128 -0.11,0.094 -0.112,0.222 -0.238,-2.432 -0.125,-2.654 -0.158,-3.981 -0.033,-1.329 -0.014,-2.297 0.018,-0.968 0.015,-1.34 0,-0.373 0,-0.805 0,-0.432 0.01,-0.337 0.01,0.095 -0.015,-0.401 -0.02,-0.496 0.111,-1.019 0.13,-0.524 0.258,-1.364 0.128,-0.841 0.162,-1.34 0.035,-0.5 0.155,-0.862 0.12,-0.361 0.113,-0.295 -0.01,0.067 0.044,-0.118 0.05,-0.185 0.264,-1.319 0.214,-1.133 0.635,-2.175 0.422,-1.043 0.594,-1.456 0.171,-0.413 0.201,-0.548 0.029,-0.135 0.034,-0.125 0.01,0.01 0.215,-0.548 0.209,-0.557 0.21,-0.491 0,0.067 0.046,-0.285 0.045,-0.353 0.785,-1.397 0.74,-1.044 1.59,-2.29 0.85,-1.246 1.577,-2.126 0.728,-0.88 1.043,-1.308 0.315,-0.428 0.201,-0.249 -0.113,0.178 0.954,-1.008 1.066,-1.187 2.451,-2.57 1.384,-1.384 2.081,-1.839 0.697,-0.455 1.053,-0.801 0.357,-0.346 0.725,-0.706 0.368,-0.361 0.389,-0.355 0.022,0.01 0.037,-0.01 0.015,-0.012 0.05,-0.05 0.035,-0.037 0.273,-0.172 0.238,-0.134 1.611,-1.305 1.373,-1.171 2.145,-1.914 0.772,-0.744 1.131,-1.01 0.359,-0.266 0.687,-0.478 0.327,-0.211 0.252,-0.169 -0.075,0.042 0.082,-0.022 0.157,-0.064 0.45,-0.406 0.293,-0.341 0.842,-0.84 0.548,-0.498 1.1,-0.735 0.551,-0.237 0.832,-0.334 0.282,-0.096 0.275,-0.097 -0.01,0 0.126,-0.053 0.131,-0.051 -0.025,-0.01 -0.157,0.042 0.782,-0.329 0.939,-0.372 1.91,-0.707 0.972,-0.335 1.5,-0.547 0.529,-0.213 0.818,-0.32 0.289,-0.108 0.373,-0.086 0.083,0.023 0.062,-0.08 -0.022,-0.103 1.549,-0.286 1.571,-0.183 2.65,-0.139 1.079,0.044 2.03,0.022 0.951,-0.022 1.432,0 0.48,0.025 0.782,0.094 0.301,0.07 0.344,0.073 0.043,0 0.408,0.093 0.364,0.089 0.23,0.058 -0.135,-0.03 0.367,0.066 0.502,0.096 2.046,0.091 1.545,0 3.265,0.078 1.719,0.081 3.009,0.689 1.289,0.608 2.121,1.072 0.832,0.463 2.526,2.05"></path><path id="STROKE_7ba7d9c2-bbdd-499a-b2bb-d022008d0d84" opacity="1" fill="#ded8c9" stroke="#ded8c9" stroke-width="0.5" stroke-opacity="1" stroke-linecap="round" stroke-linejoin="round" d="m 3273.667,2698.737 q 0.013,0 0.208,0.031 -0.107,-0.195 0.136,2.288 0.244,2.483 0.828,4.912 0.584,2.429 0.79,3.759 0.205,1.33 0.221,3.729 0.015,2.398 0.011,3.577 0,1.179 -0.123,1.789 -0.119,0.609 -0.168,0.723 -0.05,0.114 -0.071,0.235 -0.021,0.122 -0.045,0.237 -0.025,0.114 -0.057,0.229 -0.032,0.114 -0.014,0.01 0.018,-0.105 -0.051,0.574 -0.069,0.679 -0.226,1.032 -0.158,0.353 -0.333,0.484 -0.175,0.131 -0.121,0.081 0.054,-0.05 -0.227,0.135 -0.282,0.185 -0.454,0.466 -0.172,0.281 -0.453,0.396 -0.28,0.116 -0.583,0.138 -0.302,0.022 -0.632,0.058 -0.329,0.036 -0.319,0.051 0.01,0.015 -0.299,0.087 -0.308,0.072 -0.765,0.074 -0.456,0 -0.9,-0.022 -0.444,-0.025 -0.67,-0.037 -0.226,-0.012 -0.257,-0.01 -0.031,0 0.053,0 0.083,-10e-4 -0.824,0 -0.057,0.694 0.108,-1.911 0.165,-2.604 0.263,-4.33 0.097,-1.726 0.185,-2.63 0.088,-0.903 0.118,-2.917 0.029,-2.014 0.046,-4.744 0.016,-2.73 0.025,-4.1 0.01,-1.369 0.032,-2.122 0.023,-0.752 0.048,-1.012 0.025,-0.26 0.055,-0.432 0.03,-0.172 0.058,-0.317 0.027,-0.146 0.015,-0.114 -0.012,0.032 0,0.052 0.01,0.02 0.055,-0.336 0.046,-0.356 0.189,-0.74"></path><path id="STROKE_93ad81ba-08cf-4eca-aac7-adc0c9d2df68" opacity="1" fill="#ded8c9" stroke="#ded8c9" stroke-width="0.5" stroke-opacity="1" stroke-linecap="round" stroke-linejoin="round" d="m 3340.292,2827.104 q -0.162,0.012 0.069,0.051 0.231,0.038 0.573,0.431 0.342,0.393 0.309,0.651 -0.033,0.257 -0.081,0.439 -0.048,0.181 -0.067,0.215 -0.019,0.033 0,-0.038 0.016,-0.071 -0.036,0.173 -0.051,0.245 -0.514,0.595 -0.462,0.351 -0.968,0.464 -0.507,0.114 -1.112,0.309 -0.606,0.195 -0.907,0.329 -0.302,0.134 -1.124,0.5 -0.821,0.365 -2.366,0.38 -1.544,0.014 -2.673,0.061 -1.129,0.048 -2.034,0.18 -0.905,0.132 -1.445,0.085 -0.54,-0.047 -0.779,-0.097 -0.239,-0.05 -0.329,-0.091 -0.09,-0.042 -0.086,-0.066 0,-0.025 0,0.097 -0.01,0.123 -0.371,-0.374 -0.363,-0.497 -0.477,-0.891 -0.115,-0.393 -0.19,-0.657 -0.075,-0.264 -0.167,-0.609 -0.092,-0.344 -0.185,-0.803 -0.093,-0.458 -0.155,-0.901 -0.061,-0.444 -0.089,-0.661 -0.029,-0.217 -0.032,-0.342 0,-0.126 -0.133,-0.618 -0.131,-0.492 -0.145,-2.085 -0.014,-1.594 0.023,-2.419 0.037,-0.825 0.158,-1.661 0.12,-0.836 0.182,-1.298 0.061,-0.461 0.097,-0.692 0.036,-0.23 0.062,-0.355 0.027,-0.125 0.086,-0.302 0.06,-0.176 0.094,-0.221 0.034,-0.044 -0.048,0.015 -0.082,0.06 0.341,-0.187 0.147,0.432 0.111,0.337 0.134,0.498 0.121,0.454 -0.013,-0.043 0.054,0.228 0.068,0.271 0.019,0.05 -0.049,-0.222 0.063,1.24 0.112,1.462 0.594,3.018 0.482,1.555 0.81,2.727 0.328,1.173 5.47,3.626 0,-0.67 -0.011,-0.475"></path><path id="STROKE_e4c7896e-d0f1-45ab-ab0f-16e85b12be61" opacity="1" fill="#ded8c9" stroke="#ded8c9" stroke-width="0.5" stroke-opacity="1" stroke-linecap="round" stroke-linejoin="round" d="m 3357.577,2816.492 q 0.161,0.079 0.235,3.568 0.073,3.489 -0.307,6.507 -0.38,3.017 -0.3,5.836 0.111,0.242 1.918,-0.401 1.806,-0.643 2.784,-1.002 0.978,-0.359 1.468,-0.577 0.49,-0.217 1.723,-0.312 1.234,-0.094 2.386,-0.028 1.152,0.067 1.721,0.033 0.569,-0.034 0.89,-0.119 0.321,-0.085 0.296,-0.072 -0.024,0.014 0.667,-0.532 0.692,-0.547 2.621,-0.89 0.174,-0.039 -1.49,0.055 -1.665,0.095 -3.347,-0.461 -1.683,-0.556 -3.53,-0.99 -1.847,-0.433 -2.694,-0.488 -0.847,-0.056 -1.898,-0.403 -1.052,-0.348 -3.453,-8.239 0.267,0.108 0.474,0.368"></path><path id="STROKE_375bd792-9a1a-4769-b184-e82e767d4393" opacity="1" fill="#ded8c9" stroke="#ded8c9" stroke-width="0.5" stroke-opacity="1" stroke-linecap="round" stroke-linejoin="round" d="m 3409.268,2699.418 q 0,-0.015 10e-4,-0.198 -0.266,0.257 -0.452,0.328 -0.186,0.071 -1.502,1.222 -1.315,1.15 -1.952,1.983 -0.636,0.834 -2.09,2.49 -1.454,1.656 -2.2,2.8 -0.745,1.144 -1.362,1.759 -0.616,0.615 -1.109,1.863 -0.493,1.247 -0.389,2.51 0.049,0 0.04,-0.018 -0.01,-0.016 0.01,0.058 0.015,0.075 1.562,-1.393 1.547,-1.468 2.495,-2.376 0.948,-0.909 2.165,-2.511 1.217,-1.602 1.827,-2.441 0.61,-0.839 1.074,-1.396 0.463,-0.556 0.654,-0.832 0.191,-0.275 0.284,-0.384 0.094,-0.109 0.086,-0.121 -0.01,-0.013 -0.037,0.022 -0.03,0.034 0.672,-0.666 0.702,-0.7 1.09,-1.256 0.388,-0.556 0.619,-0.968 0.23,-0.413 0.214,-0.531 -0.017,-0.118 -0.01,-0.144 0.01,-0.027 -0.107,-0.215 -0.116,-0.189 -0.2,-0.511 -0.084,-0.323 -0.082,-0.706 0,-0.384 -0.015,-0.669 -0.016,-0.284 0.01,-0.2 0.022,0.084 -0.098,-0.38 -0.12,-0.464 -0.114,-1.378 0.01,-0.914 0.156,-1.845 0.15,-0.931 0.404,-1.732 0.254,-0.802 0.188,-0.653 -0.065,0.15 0.067,-0.278 0.132,-0.428 0.86,-1.647 0.727,-1.218 0.973,-1.738 0.245,-0.519 0.39,-0.758 0.145,-0.238 0.174,-0.279 0.029,-0.041 0.17,-0.29 0.141,-0.249 0.23,-0.413 0.089,-0.164 0.143,-0.233 0.055,-0.069 -0.01,0 -0.06,0.073 0.169,-0.28 0.23,-0.354 0.434,-0.599 0.204,-0.245 0.194,-0.235 -0.01,0.01 0.022,-0.041 0.031,-0.051 0.017,-0.01 -0.013,0.046 0.162,-0.223 0.175,-0.268 0.195,-0.366 0.019,-0.098 0.017,-0.072 0,0.025 -0.013,-0.049 -0.011,-0.074 -0.025,0.01 -0.015,0.081 0.069,-0.157 0.085,-0.237 -0.497,-0.659 -0.581,-0.421 -1.008,-0.578 -0.427,-0.156 -0.605,-0.177 -0.179,-0.021 -0.446,-0.017 -0.267,0.01 -0.665,0.119 -0.398,0.114 -0.293,0.116 0.105,0 -0.316,0.216 -0.42,0.213 -1.622,0.898 -1.202,0.685 -1.584,1.048 -0.382,0.362 -0.659,0.635 -0.277,0.273 -0.203,0.187 0.075,-0.086 -0.311,0.55 -0.385,0.636 -0.754,1.09 -0.369,0.452 -0.689,1.228 -0.32,0.775 -0.409,1.178 -0.087,0.404 -0.119,0.629 -0.031,0.225 -0.03,0.354 0,0.129 0.015,0.104 0.014,-0.025 -0.035,-0.031 -0.049,-0.01 0.061,0.558 0.109,0.565 0.445,1.509 0.336,0.945 0.619,2.458"></path><path id="STROKE_e11d3421-aa7b-43b6-b38b-9e0133dfdb86" opacity="1" fill="#ded8c9" stroke="#ded8c9" stroke-width="0.5" stroke-opacity="1" stroke-linecap="round" stroke-linejoin="round" d="m 3273.169,2730.088 q 0.074,-0.025 0.312,0.418 0.238,0.444 0.284,0.69 0.045,0.246 -0.181,0.674 -0.226,0.428 -2.222,1.096 -1.995,0.667 -3.452,1.108 -1.457,0.44 -2.529,0.575 -1.072,0.136 -2.202,0.144 -1.129,0.01 -2.198,-0.326 -1.068,-0.334 -2.316,-0.829 -1.248,-0.495 -2.022,-0.952 -0.773,-0.458 -1.132,-0.699 -0.358,-0.241 -0.485,-0.438 -0.126,-0.196 -0.115,-0.429 0.011,-0.233 0.399,-0.488 0.388,-0.254 1.663,-0.798 1.276,-0.544 4.423,-0.857 3.146,-0.313 7.07,-0.116"></path><path id="STROKE_15ba258e-4669-41d6-bb88-466c2551d84b" opacity="1" fill="#ded8c9" stroke="#ded8c9" stroke-width="0.5" stroke-opacity="1" stroke-linecap="round" stroke-linejoin="round" d="m 3339.2,2840.699 q 0.262,-0.057 0.761,0.325 0.499,0.382 0.612,0.672 0.113,0.29 0.134,0.496 0.02,0.206 -0.02,0.246 -0.04,0.04 -0.207,0.182 -0.167,0.142 -0.326,0.235 -0.159,0.093 -0.064,0.016 0.094,-0.077 -0.752,0.408 -0.847,0.484 -2.754,0.882 -1.907,0.398 -4.068,0.483 -2.16,0.086 -3.347,0.068 -1.187,-0.018 -1.924,-0.164 -0.737,-0.146 -1.295,-0.499 -0.558,-0.353 -0.748,-0.679 -0.19,-0.326 -0.18,-0.504 0.01,-0.178 0.279,-0.615 0.269,-0.436 1.398,-0.939 1.13,-0.503 1.964,-0.78 0.835,-0.276 2.379,-0.363 1.545,-0.086 2.628,-0.068 1.082,0.018 1.809,0.057 0.727,0.039 2.71,0.675"></path><path id="STROKE_b6cbb318-a26e-4600-9974-94d99f122587" opacity="1" fill="#ded8c9" stroke="#ded8c9" stroke-width="0.5" stroke-opacity="1" stroke-linecap="round" stroke-linejoin="round" d="m 3370.755,2837.886 q 0.367,0.022 0.333,0.056 0,0 0.182,0.095 0.18,0.093 0.462,0.389 0.283,0.295 0.355,0.552 0.073,0.256 0.041,0.425 -0.031,0.168 -0.052,0.489 -0.021,0.32 -1.143,1.047 -1.122,0.728 -1.901,1.074 -0.779,0.347 -1.957,0.606 -1.178,0.259 -2.569,0.216 -1.391,-0.043 -2.091,-0.106 -0.7,-0.061 -1.974,-0.488 -1.274,-0.427 -2.019,-0.901 -0.744,-0.475 -0.96,-0.922 -0.216,-0.447 -0.053,-0.733 0.163,-0.285 1.142,-0.826 0.978,-0.54 3.118,-0.695 2.14,-0.154 5.635,0.798"></path><path id="STROKE_279c68dc-9e4a-4bf2-86ff-a53c2ee8f6b4" opacity="1" fill="#ded8c9" stroke="#ded8c9" stroke-width="0.5" stroke-opacity="1" stroke-linecap="round" stroke-linejoin="round" d="m 3418.426,2722.083 q 0.032,0.128 0.024,0.423 -0.01,0.294 -0.02,0.444 -0.011,0.15 -0.111,0.305 -0.1,0.155 -0.129,0.17 -0.029,0.014 -0.043,0.071 -0.014,0.057 -0.505,0.42 -0.491,0.363 -1.181,0.65 -0.691,0.286 -2.332,0.849 -1.642,0.563 -3.714,0.821 -2.071,0.259 -3.759,0.286 -1.687,0.028 -3.303,-0.376 -1.616,-0.405 -2.569,-0.838 -0.952,-0.433 -1.395,-0.722 -0.443,-0.29 -0.686,-0.673 -0.243,-0.382 0.15,-0.639 0.393,-0.256 1.309,-0.672 0.915,-0.416 2.324,-0.759 1.409,-0.343 2.886,-0.472 1.477,-0.129 4.016,0.01 2.54,0.137 6.684,1.644"></path><path id="STROKE_eff871f5-1ac7-4b68-9de4-3db81d7f8d90" opacity="1" fill="#ded8c9" stroke="#ded8c9" stroke-width="0.5" stroke-opacity="1" stroke-linecap="round" stroke-linejoin="round" d="m 3380.855,2625.271 q 0.161,-0.041 0.323,0.01 0.162,0.049 1.023,0.068 0.861,0.018 1.251,-0.038 0.389,-0.056 0.605,-0.035 0.215,0.02 0.297,0.032 0.081,0.011 0.649,0.029 0.568,0.019 1.583,-0.166 1.015,-0.185 5.115,1.483 4.1,1.669 6.281,2.599 2.181,0.93 3.082,1.485 0.902,0.555 3.004,1.698 2.102,1.143 4.094,1.767 1.992,0.625 4.108,1.874 2.116,1.25 3.796,2.165 1.681,0.915 2.507,1.256 0.827,0.34 2.809,1.892 1.983,1.552 3.269,2.565 1.287,1.014 2.903,2.297 1.616,1.283 3.147,2.771 1.532,1.488 2.622,2.463 1.091,0.975 3.62,3.023 2.529,2.047 4.332,3.541 1.802,1.493 2.696,2.393 0.894,0.9 1.246,1.344 0.352,0.444 0.905,0.953 0.553,0.51 1.962,1.854 1.409,1.345 2.293,2.585 0.884,1.239 1.446,1.954 0.562,0.715 0.847,1.048 0.285,0.333 0.463,0.538 0.178,0.206 0.325,0.396 0.146,0.19 0.137,0.188 -0.01,0 0.062,0.061 0.07,0.063 0.885,1.182 0.815,1.119 1.606,2.315 0.791,1.196 1.265,1.938 0.474,0.742 1.006,1.532 0.532,0.79 0.956,1.456 0.424,0.666 0.824,1.278 0.4,0.613 0.987,1.435 0.586,0.821 1.084,1.552 0.497,0.731 0.66,0.955 0.164,0.223 0.855,1.197 0.691,0.973 1.04,1.541 0.349,0.568 0.685,1.61 0.336,1.043 0.909,2.609 0.572,1.567 0.871,3.412 0.299,1.845 0.892,4.05 0.593,2.205 1.185,4.166 0.592,1.96 1.219,4.308 0.627,2.348 1.039,3.272 0.412,0.924 0.426,2.595 0.014,1.672 0.058,2.669 0.045,0.997 -0.016,1.708 -0.06,0.712 0.377,2.324 0.437,1.612 0.506,2.56 0.067,0.949 0.125,1.488 0.058,0.539 0.441,2.619 0.382,2.08 0.343,4.122 -0.039,2.041 -0.037,3.019 0,0.978 0,1.464 0,0.486 0.011,1.096 0.014,0.61 0.015,0.91 0,0.3 0.033,0.619 0.033,0.32 0.073,0.637 0.041,0.318 0.042,0.608 0,0.29 0.215,1.32 0.212,1.03 -0.058,3.211 -0.271,2.18 -0.577,4.924 -0.307,2.745 -0.561,4.332 -0.255,1.586 -0.145,2.361 0.11,0.775 -0.256,3.391 -0.366,2.617 -0.864,4.869 -0.497,2.253 -0.863,3.497 -0.365,1.244 -0.61,2.372 -0.244,1.129 -0.315,2.042 -0.071,0.913 -0.481,2.787 -0.41,1.874 -0.774,2.992 -0.364,1.118 -0.735,2.897 -0.372,1.779 -0.783,3.847 -0.411,2.067 -0.914,3.821 -0.503,1.753 -0.777,2.48 -0.274,0.727 -0.367,1.746 -0.093,1.019 -0.227,1.892 -0.134,0.872 -0.543,1.859 -0.408,0.987 -0.446,1.374 -0.038,0.386 -0.535,1.707 -0.497,1.32 -1.081,2.352 -0.585,1.031 -0.871,1.708 -0.287,0.677 -0.494,1.358 -0.206,0.681 -0.248,0.875 -0.042,0.194 -0.392,0.944 -0.351,0.749 -0.635,1.423 -0.285,0.675 -0.92,2.629 -0.635,1.954 -1.452,3.522 -0.818,1.568 -1.813,2.916 -0.996,1.348 -1.582,2.441 -0.586,1.093 -0.89,1.578 -0.304,0.484 -0.655,1.033 -0.352,0.549 -0.641,1.028 -0.29,0.479 -0.787,1.633 -0.497,1.154 -1.873,3.516 -1.376,2.362 -2.122,3.555 -0.746,1.192 -1.204,1.8 -0.458,0.609 -1.165,1.866 -0.707,1.258 -2.26,2.679 -1.553,1.421 -2.276,2.147 -0.722,0.725 -1.059,1.163 -0.337,0.439 -0.932,0.856 -0.596,0.417 -1.14,1.005 -0.545,0.588 -0.862,0.962 -0.318,0.373 -0.502,0.542 -0.183,0.169 -0.198,0.183 -0.015,0.015 -0.352,0.306 -0.336,0.291 -0.561,0.474 -0.225,0.184 -0.407,0.348 -0.183,0.164 -0.375,0.317 -0.193,0.154 -0.191,0.128 0,-0.026 0.015,-0.01 0.013,0.019 -2.197,1.324 -2.209,1.305 -3.45,1.908 -1.241,0.603 -1.809,0.847 -0.567,0.244 -0.822,0.363 -0.255,0.119 -0.894,0.552 -0.639,0.432 -2.185,1.004 -1.546,0.572 -2.385,0.848 -0.839,0.275 -1.183,0.501 -0.344,0.225 -0.833,0.441 -0.489,0.217 -0.656,0.273 -0.167,0.056 -0.118,0.035 0.048,-0.021 -0.072,0.019 -0.12,0.04 -2.084,0.652 -1.963,0.612 -3.72,1.15 -1.756,0.538 -2.392,0.48 -0.635,-0.058 -1.96,0.878 -1.325,0.936 -2.032,1.659 -0.707,0.724 -1.156,0.883 -0.45,0.16 -1.001,0.472 -0.552,0.312 -1.482,0.456 -0.929,0.143 -3.804,1.07 -2.874,0.928 -4.295,1.334 -1.421,0.406 -2.18,0.79 -0.76,0.385 -1.375,0.741 -0.615,0.355 -1.254,0.604 -0.638,0.249 -1.116,0.392 -0.479,0.143 -0.735,0.228 -0.257,0.084 -0.544,0.12 -0.288,0.035 -1.186,0.321 -0.898,0.286 -1.571,0.594 -0.672,0.307 -0.934,0.397 -0.262,0.089 -0.484,0.102 -0.222,0.014 -1.073,0.126 -0.851,0.112 -1.052,0.109 -0.201,0 -1.023,0.159 -0.821,0.162 -1.318,0.328 -0.496,0.166 -0.599,0.216 -0.103,0.051 -0.422,0.158 -0.318,0.106 -0.605,0.149 -0.287,0.044 -1.451,0.37 -1.163,0.327 -2.282,0.656 -1.12,0.328 -1.78,0.421 -0.661,0.092 -1.128,0.124 -0.468,0.033 -1.256,0.325 -0.787,0.292 -1.244,0.498 -0.457,0.207 -1.803,0.725 -1.346,0.518 -4.36,0.892 0.308,-0.184 1.198,-0.775 0.89,-0.591 1.765,-0.99 0.875,-0.399 1.464,-0.738 0.589,-0.339 2.187,-1.073 1.599,-0.733 3.038,-1.322 1.439,-0.588 2.506,-1.01 1.067,-0.423 3.569,-1.585 2.502,-1.163 3.805,-1.912 1.304,-0.748 2.125,-1.362 0.82,-0.615 1.528,-1.027 0.707,-0.413 1.155,-0.676 0.448,-0.263 0.706,-0.408 0.258,-0.146 0.313,-0.185 0.054,-0.038 0.694,-0.43 0.639,-0.393 1.053,-0.633 0.414,-0.241 1.725,-1.004 1.311,-0.764 2.105,-1.214 0.793,-0.45 1.189,-0.67 0.397,-0.22 0.857,-0.485 0.461,-0.264 0.867,-0.506 0.405,-0.242 0.68,-0.423 0.274,-0.181 0.419,-0.274 0.144,-0.093 0.204,-0.132 0.06,-0.039 0.346,-0.207 0.285,-0.168 0.605,-0.349 0.32,-0.182 0.521,-0.295 0.2,-0.113 0.502,-0.282 0.302,-0.169 0.111,-0.021 -0.192,0.148 0.761,-0.452 0.953,-0.6 1.848,-1.176 0.895,-0.577 1.529,-0.797 0.635,-0.221 0.972,-0.307 0.337,-0.087 0.624,-0.135 0.287,-0.049 1.179,-0.462 0.892,-0.414 1.721,-0.654 0.83,-0.241 1.44,-0.393 0.61,-0.153 1.009,-0.364 0.398,-0.211 0.844,-0.426 0.446,-0.215 0.781,-0.337 0.336,-0.121 1.216,-0.415 0.88,-0.294 2.645,-1.053 1.766,-0.759 2.725,-1.268 0.959,-0.51 1.471,-0.894 0.512,-0.385 1.985,-0.979 1.473,-0.595 2.155,-0.912 0.682,-0.316 1.046,-0.595 0.364,-0.28 0.532,-0.403 0.168,-0.124 0.582,-0.405 0.413,-0.281 0.73,-0.491 0.316,-0.21 0.387,-0.248 0.072,-0.039 0.066,-0.042 -0.01,0 0.048,-0.047 0.054,-0.045 0.48,-0.138 0.426,-0.094 2.158,-1.798 1.732,-1.705 2.755,-2.607 1.023,-0.902 1.558,-1.194 0.535,-0.291 1.236,-1.092 0.701,-0.8 1.396,-1.682 0.697,-0.883 1.82,-2.264 1.124,-1.381 1.624,-2.11 0.5,-0.73 0.771,-1.062 0.272,-0.333 0.383,-0.489 0.111,-0.156 0.212,-0.296 0.1,-0.141 0.208,-0.266 0.108,-0.125 0.578,-0.741 0.469,-0.616 1.023,-1.648 0.553,-1.031 1.041,-1.859 0.489,-0.827 0.743,-1.243 0.255,-0.415 0.358,-0.648 0.103,-0.232 0.335,-0.617 0.232,-0.386 2.496,-4.438 2.263,-4.053 3.438,-6.398 1.175,-2.346 1.614,-3.227 0.439,-0.88 0.982,-2.354 0.544,-1.473 0.887,-2.588 0.344,-1.115 0.912,-3.194 0.569,-2.079 0.938,-3.118 0.37,-1.039 0.581,-1.607 0.211,-0.567 0.279,-0.827 0.069,-0.26 0.374,-1.117 0.305,-0.857 0.584,-1.912 0.279,-1.055 0.324,-1.482 0.046,-0.426 0.579,-2.586 0.533,-2.16 0.981,-3.702 0.448,-1.542 0.771,-2.221 0.322,-0.679 0.504,-1.188 0.182,-0.51 0.304,-0.867 0.122,-0.356 0.223,-0.823 0.101,-0.468 0.127,-0.667 0.025,-0.199 0.221,-1.264 0.196,-1.066 0.281,-1.484 0.085,-0.417 0.446,-1.66 0.361,-1.244 0.538,-2.187 0.177,-0.942 0.219,-1.692 0.042,-0.75 0.218,-1.681 0.177,-0.932 0.418,-2.855 0.241,-1.923 0.503,-3.012 0.262,-1.088 0.504,-2.185 0.242,-1.097 0.298,-2.367 0.056,-1.271 0.106,-1.873 0.05,-0.602 0.155,-1.377 0.105,-0.774 0.183,-1.325 0.078,-0.551 0.05,-0.483 -0.027,0.069 0.072,-0.481 0.099,-0.55 0.208,-1.757 0.108,-1.208 0.084,-2.03 -0.024,-0.821 -0.01,-1.4 0.017,-0.579 0.051,-0.907 0.035,-0.327 0.035,-0.373 0,-0.045 0.15,-0.628 0.15,-0.583 0.019,-2.313 -0.132,-1.73 -0.41,-3.431 -0.278,-1.7 -0.164,-2.508 0.114,-0.808 -0.334,-3.543 -0.448,-2.736 -0.917,-4.188 -0.468,-1.452 -0.518,-2.566 -0.049,-1.115 -0.099,-1.818 -0.05,-0.705 -0.092,-0.978 -0.042,-0.272 -0.576,-1.113 -0.535,-0.84 -0.946,-2.117 -0.41,-1.276 -0.472,-1.964 -0.061,-0.688 -0.13,-1.424 -0.068,-0.736 -0.163,-1.081 -0.094,-0.344 -0.147,-0.62 -0.054,-0.277 -0.087,-0.405 -0.034,-0.129 -0.024,-0.132 0.01,0 -0.177,-0.471 -0.188,-0.467 -0.312,-1.049 -0.124,-0.583 -0.152,-0.841 -0.029,-0.257 -0.059,-0.588 -0.03,-0.332 -0.207,-1.125 -0.176,-0.794 -0.305,-1.275 -0.13,-0.481 -0.212,-0.728 -0.083,-0.246 -0.176,-0.513 -0.094,-0.266 -0.172,-0.468 -0.078,-0.202 -0.084,-0.226 -0.01,-0.024 -0.027,-0.053 -0.02,-0.03 -0.385,-1.231 -0.365,-1.201 -1.16,-2.933 -0.794,-1.733 -1.156,-2.511 -0.362,-0.779 -0.497,-1.564 -0.135,-0.785 -0.169,-1.204 -0.034,-0.42 -0.19,-0.797 -0.157,-0.378 -0.211,-0.445 -0.055,-0.068 -0.369,-0.704 -0.313,-0.637 -0.519,-1.087 -0.206,-0.451 -0.326,-0.721 -0.121,-0.269 -0.196,-0.435 -0.075,-0.166 -0.175,-0.435 -0.1,-0.268 -0.202,-1.015 -0.102,-0.746 -0.823,-2.285 -0.721,-1.538 -1.558,-2.917 -0.837,-1.379 -1.514,-2.407 -0.677,-1.028 -1.63,-2.471 -0.953,-1.443 -1.543,-2.174 -0.591,-0.732 -1.626,-2.199 -1.035,-1.466 -1.491,-2.168 -0.456,-0.701 -1.66,-2.025 -1.204,-1.324 -1.814,-2.059 -0.611,-0.735 -1.008,-1.162 -0.398,-0.426 -0.774,-0.778 -0.376,-0.352 -0.38,-0.354 0,0 -0.805,-0.804 -0.802,-0.803 -1.31,-1.269 -0.508,-0.466 -0.769,-0.7 -0.261,-0.234 -0.424,-0.377 -0.163,-0.142 -0.175,-0.145 -0.012,0 -0.685,-0.585 -0.673,-0.582 -2.028,-1.692 -1.354,-1.111 -2.336,-2.005 -0.981,-0.894 -3.27,-2.515 -2.289,-1.621 -3.444,-2.452 -1.155,-0.831 -2.653,-1.573 -1.497,-0.743 -3.076,-2.013 -1.578,-1.27 -2.611,-1.849 -1.032,-0.579 -2.74,-1.763 -1.708,-1.184 -2.598,-1.793 -0.89,-0.608 -1.35,-0.858 -0.46,-0.25 -0.808,-0.451 -0.348,-0.202 -0.636,-0.341 -0.288,-0.139 -0.293,-0.141 0,0 0.032,0.034 0.036,0.037 -1.075,-0.622 -1.111,-0.66 -2.542,-1.42 -1.432,-0.76 -2.416,-1.215 -0.984,-0.455 -3.572,-1.778 -2.588,-1.324 -4.875,-2.338 -2.287,-1.014 -3.382,-1.481 -1.094,-0.467 -1.429,-0.539 -0.335,-0.071 -0.712,-0.124 -0.377,-0.054 -0.986,-0.085 -0.609,-0.032 -1.734,-0.419 -1.125,-0.388 -2.241,-0.87 -1.116,-0.482 -1.803,-0.706 -0.687,-0.223 -2.466,-0.405 -1.779,-0.182 -2.668,-0.354 -0.888,-0.172 -1.453,-0.442 -0.564,-0.27 -2.328,-0.63 -1.764,-0.359 -3.03,-0.523 -1.267,-0.164 -2.591,-0.47 -1.324,-0.306 -3.596,-0.746 -2.272,-0.44 -4.175,-0.696 -1.903,-0.256 -4.317,-0.451 -2.414,-0.195 -3.656,-0.503 -1.243,-0.309 -1.992,-0.383 -0.75,-0.073 -1.216,-0.161 -0.466,-0.089 -0.629,-0.21 -0.162,-0.121 -0.336,-0.225 -0.173,-0.105 -0.112,-0.082 0.06,0.023 -0.238,-0.148 -0.297,-0.17 -0.41,-0.38 -0.113,-0.209 -0.061,-0.577 0.052,-0.368 0.054,-0.352 0,0.015 10e-4,-0.012 -10e-4,-0.027 -10e-4,-0.216 10e-4,-0.189 0.01,-0.209 0,-0.021 -0.01,0.014 -0.015,0.035 -0.011,0.019 0,-0.015 0.037,-0.197 0.035,-0.182 0.322,-0.268 0.288,-0.085 0.628,-0.257 0.339,-0.172 0.613,-0.296 0.274,-0.125 0.372,-0.122 0.1,0 0.418,-0.011 0.319,-0.014 0.415,-0.022 0.097,-0.01 0.256,-0.037 0.159,-0.029 0.266,-0.05 0.108,-0.02 0.031,-0.064 -0.077,-0.043 0.477,-0.128 0.555,-0.084 1.103,-0.045 0.548,0.039 0.818,-0.062 0.269,-0.101 0.421,-0.143 0.151,-0.042 0.216,-0.061 0.064,-0.019 0.01,-0.021 -0.059,0 0.279,-0.023 0.337,-0.021 1.085,-0.399 0.748,-0.378 1.088,-0.631 0.341,-0.253 0.501,-0.316 0.161,-0.062 0.253,-0.099 0.092,-0.038 0.072,0 -0.02,0.035 0.297,-0.272 0.316,-0.308 6.198,1.306"></path><path id="STROKE_fb92150a-feb2-407c-9273-f1b35da3e6f5" opacity="1" fill="#ded8c9" stroke="#ded8c9" stroke-width="0.5" stroke-opacity="1" stroke-linecap="round" stroke-linejoin="round" d="m 3415.594,2639.414 q 0.596,0.101 0.589,0.163 0.631,0.352 1.679,0.289 1.047,-0.064 2.574,0.198 1.527,0.262 2.695,1.052 1.169,0.79 4.052,3.294 2.883,2.504 5.807,4.609 2.924,2.105 4.575,3.158 1.651,1.054 4.102,3.377 2.451,2.324 3.895,3.88 1.445,1.556 2.022,2.271 0.578,0.715 0.592,1.24 0.013,0.526 -0.601,0.908"></path></g><path id="STROKE_9dec7c65-c6da-45cf-90b3-318b7aec7790" opacity="1" fill="none" stroke="#000000" stroke-width="0.415484" stroke-opacity="1" stroke-linecap="round" stroke-linejoin="round" d="m 41.706543,9.9722376 q 0.378909,0.4474104 0.617354,0.7813264 0.238609,0.333755 0.587772,0.87845 0.349318,0.544698 0.618945,1.030635 0.269464,0.485783 0.610353,1.293759 0.341049,0.808134 0.52939,1.304351 0.188179,0.496216 0.509663,1.859161 0.321323,1.363108 0.443967,2.425372 0.122642,1.06242 0.121213,1.813085 -0.0017,0.750665 -0.02322,1.146063 -0.02196,0.395557 -0.03756,0.650969 -0.01574,0.255254 -0.105306,1.126641 -0.08939,0.871223 -0.173389,1.365992 -0.08414,0.494612 -0.177202,0.852609 -0.09322,0.357832 -0.524622,1.810838 -0.43124,1.453006 -0.951081,2.669866 -0.520002,1.217016 -0.981469,2.142988 -0.461624,0.925968 -0.581088,1.12792 -0.119301,0.201955 -0.297144,0.459615 -0.17784,0.257656 -0.478805,0.67826 -0.301122,0.420604 -0.314167,0.433446 -0.01303,0.01302 -0.204563,0.266971 -0.191519,0.253969 -0.695299,0.74296 -0.503779,0.48899 -0.967946,0.849712 -0.464171,0.360564 -1.131793,0.790797 -0.667617,0.430073 -0.984648,0.591252 -0.316868,0.161178 -0.785809,0.364736 -0.468784,0.203398 -1.307247,0.519816 -0.838306,0.316578 -1.460907,0.543252 -0.622604,0.226676 -0.939791,0.312723 -0.317032,0.08605 -1.227395,0.223945 -0.910361,0.137901 -1.007874,0.153314 -0.09751,0.01543 -0.308121,0.03754 -0.210607,0.0223 -1.177123,0.134849 -0.966517,0.112536 -1.439594,0.184778 -0.473234,0.07224 -1.051937,0.103868 -0.578861,0.03162 -0.945838,0.01606 -0.366975,-0.01557 -0.880778,-0.08621 -0.513799,-0.07046 -0.822398,-0.128749 -0.308435,-0.05827 -0.456054,-0.09455 -0.147776,-0.03645 -0.426949,-0.09168 -0.279329,-0.05539 -0.393063,-0.0814 -0.113738,-0.02584 -0.683368,-0.158124 -0.569476,-0.132282 -1.272092,-0.339053 -0.702617,-0.206771 -1.05798,-0.346274 -0.355209,-0.139504 -0.697688,-0.255412 -0.342634,-0.115904 -0.546085,-0.206766 -0.203613,-0.09087 -0.470212,-0.222502 -0.266606,-0.13164 -0.6856,-0.337606 -0.418832,-0.206129 -0.750972,-0.404389 -0.33214,-0.198261 -0.677326,-0.423971 -0.345348,-0.225696 -0.448426,-0.281883 -0.103077,-0.05636 -1.089475,-0.851962 -0.986559,-0.795614 -1.418915,-1.205621 -0.432355,-0.410009 -0.767836,-0.789034 -0.335482,-0.379021 -0.542275,-0.634114 -0.206791,-0.25493 -0.502823,-0.662209 -0.296031,-0.407117 -0.650598,-0.923561 -0.3547277,-0.51644 -0.4185177,-0.610356 -0.063622,-0.09391 -0.320687,-0.503597 -0.257058,-0.409687 -0.482144,-0.813113 -0.225085,-0.403426 -0.398154,-0.760298 -0.173069,-0.356709 -0.174182,-0.362329 -0.00174,-0.0058 -0.217609,-0.452226 Q 7.9957185,29.186717 7.6961876,28.236508 7.3966576,27.2863 7.2673322,26.776922 7.1380061,26.26754 7.0910802,26.015659 7.0441501,25.763783 6.942988,25.216195 6.8416597,24.66861 6.8168411,24.503419 q -0.0248,-0.165033 -0.1403009,-1.470668 -0.1154824,-1.305634 -0.118666,-1.400672 -0.00316,-0.09488 0.00272,-0.284145 0.00606,-0.189109 0.00179,-0.266812 -0.00495,-0.07786 0.00938,-0.669754 0.014336,-0.592053 0.064907,-0.959519 0.05058,-0.367468 0.1027589,-0.685003 0.052175,-0.317702 0.08367,-0.511148 0.03152,-0.193606 0.1131015,-0.565564 0.081605,-0.371804 0.2463999,-0.974931 0.1647988,-0.603135 0.2638997,-0.933036 0.099101,-0.33006 0.2419449,-0.716789 0.1428483,-0.386729 0.4387168,-1.152165 0.2958734,-0.76543 0.4320394,-1.086022 0.136166,-0.320427 0.436332,-0.889526 0.300009,-0.5691 0.603674,-0.999974 0.303666,-0.43088 0.4765747,-0.680995 0.172753,-0.250111 0.305421,-0.4417914 0.132662,-0.191841 0.664118,-0.7744242 0.531455,-0.5825833 0.81047,-0.8229054 0.278847,-0.2401574 0.283301,-0.2481852 0.0046,-0.00805 0.251333,-0.2236256 0.247198,-0.2155997 0.681619,-0.5119487 0.434424,-0.2961908 0.703252,-0.4690864 0.268833,-0.173055 0.350754,-0.226193 0.08192,-0.053134 0.275989,-0.1587703 0.194225,-0.1056338 0.2806,-0.1539522 0.08621,-0.04832 0.377795,-0.189592 0.29142,-0.1411103 0.471644,-0.2131915 0.180385,-0.072082 0.526365,-0.1924821 0.345982,-0.1204046 0.618787,-0.2303695 0.272806,-0.1099659 0.822717,-0.2680951 0.550066,-0.1581248 0.93136,-0.2494693 0.381457,-0.091344 0.876963,-0.2391984 0.495347,-0.1478538 0.885388,-0.2289228 0.390047,-0.081073 2.549117,-0.3027705 2.158911,-0.2215422 2.610353,-0.251881 0.451447,-0.030356 0.97081,-0.026803 0.51921,0.00364 0.914342,-0.00317 0.395133,-0.00689 0.757178,0.00643 0.362206,0.013336 0.634375,0.031308 0.27217,0.018158 0.473235,0.028258 0.20107,0.0101 0.456375,0.049442 0.255152,0.039179 0.937883,0.1549168 0.682575,0.1157489 0.858033,0.149942 0.175453,0.034172 0.45367,0.1117313 0.278054,0.077538 0.747152,0.2141568 0.469105,0.1366134 0.733321,0.2204129 0.264376,0.083799 0.352818,0.1072397 0.08845,0.023297 0.321801,0.1144619 0.233517,0.091184 0.736499,0.2611912 0.502985,0.1700062 0.764974,0.2700201 0.262149,0.100013 0.452398,0.1815642 0.190088,0.081392 0.846257,0.4212454"></path><path id="STROKE_7938a355-e801-4665-b078-cb0fe9752912" opacity="1" fill="none" stroke="#000000" stroke-width="0.415484" stroke-opacity="1" stroke-linecap="round" stroke-linejoin="round" d="m 17.209609,41.328026 q -0.06968,0.53988 -0.262628,1.426836 -0.192953,0.886959 -0.31544,1.362948 -0.122322,0.475826 -0.307961,1.159228 -0.185636,0.683238 -0.35425,1.288297 -0.168617,0.605057 -0.258492,0.895627 -0.08987,0.290731 -0.177524,0.613888 -0.08749,0.323316 -0.164478,0.633631 -0.07714,0.310475 -0.130755,0.517568 -0.05376,0.20709 -0.123279,0.440828 -0.06968,0.2339 -0.109439,0.380791 -0.03977,0.146892 -0.131875,0.517408 -0.09194,0.370515 -0.106098,0.391703 -0.01416,0.0212 -0.05727,0.08412"></path><path id="STROKE_e65a820e-04f4-4f79-910a-d6814a72c7e9" opacity="1" fill="none" stroke="#000000" stroke-width="0.415484" stroke-opacity="1" stroke-linecap="round" stroke-linejoin="round" d="m 14.367802,50.921784 q -0.04596,0.0032 -0.30335,-0.04672 -0.257374,-0.05009 -0.418989,-0.08043 -0.161457,-0.03036 -0.217767,-0.03276 -0.05616,-0.0022 -0.08972,0.0018 -0.03355,0.0037 -0.150641,-0.0032 -0.117237,-0.0069 -0.227633,-0.04237 -0.110555,-0.03549 -0.275827,-0.07465 -0.0692,-0.06309 -0.313688,-0.147696"></path><path id="STROKE_bce8ae7e-ad9f-4bac-be80-092fa130eec5" opacity="1" fill="none" stroke="#000000" stroke-width="0.415484" stroke-opacity="1" stroke-linecap="round" stroke-linejoin="round" d="m 12.370348,50.50985 q 0.01574,-0.165191 0.04899,-0.34724 0.03322,-0.182205 0.17084,-0.768962 0.137595,-0.58676 0.336117,-1.326025 0.198522,-0.739265 0.282351,-1.062262 0.08383,-0.323158 0.195974,-0.712135 0.112304,-0.388977 0.184364,-0.672322 0.07206,-0.283183 0.278536,-1.054398 0.206314,-0.771051 0.320846,-1.144298 0.114373,-0.373245 0.264057,-0.862554 0.149525,-0.489154 0.207111,-0.6773 0.05758,-0.18799 0.136481,-0.414665 0.07906,-0.226516 0.184843,-0.530729 0.105779,-0.304213 0.200109,-0.557699 0.09416,-0.253324 0.181657,-0.430557"></path><path id="STROKE_eb4c3294-0777-4ca6-b0af-82b6c2d7bc09" opacity="1" fill="none" stroke="#000000" stroke-width="0.415484" stroke-opacity="1" stroke-linecap="round" stroke-linejoin="round" d="m 37.480821,40.09993 q 0.396883,1.020684 0.618311,1.491372 0.221587,0.470529 0.29953,0.678101 0.0781,0.207575 0.140621,0.373408 0.06267,0.165994 0.07604,0.185738 0.01334,0.01976 0.22779,0.582742 0.21443,0.562839 0.355525,0.951174 0.141256,0.388177 0.255945,0.654182 0.114532,0.266171 0.228426,0.573915 0.113733,0.307908 0.148571,0.388176 0.03468,0.08043 0.194225,0.484976 0.159708,0.40455 0.252289,0.645673 0.09258,0.240964 0.183885,0.459134 0.09131,0.218165 0.255153,0.615493 0.164,0.397323 0.256417,0.604736 0.09242,0.207412 0.178801,0.375493 0.08638,0.167918 0.19454,0.350129"></path><path id="STROKE_0ffff318-fa1b-4c27-be90-e4edbd26da18" opacity="1" fill="none" stroke="#000000" stroke-width="0.415484" stroke-opacity="1" stroke-linecap="round" stroke-linejoin="round" d="m 41.21263,49.790972 q -0.03531,-0.0047 -0.295238,0.04705 -0.259923,0.05185 -0.516184,0.118153 -0.256265,0.06646 -0.531933,0.112855 -0.275511,0.04624 -0.509985,0.07417 -0.234468,0.02777 -0.387177,-0.0064 -0.137753,-0.130516 -0.247194,-0.22379 -0.109602,-0.09327 -0.125668,-0.09857 -0.01606,-0.0051 -0.163686,-0.224109 -0.147777,-0.218812 -0.216175,-0.349005 -0.06841,-0.130034 -0.260879,-0.562678 -0.192475,-0.43264 -0.324501,-0.728666 -0.131874,-0.296192 -0.270582,-0.568941 -0.138867,-0.272751 -0.243379,-0.476631 -0.104508,-0.203876 -0.111032,-0.221696 -0.0064,-0.01783 -0.122322,-0.253806 -0.116123,-0.235826 -0.290784,-0.54566 -0.174817,-0.309838 -0.296351,-0.547589 -0.12153,-0.237592 -0.2464,-0.49557 -0.124714,-0.257984 -0.194383,-0.410329 -0.06967,-0.15219 -0.08367,-0.191521 -0.01384,-0.03918 -0.129167,-0.274193 -0.115325,-0.235185 -0.297462,-0.580658 -0.182137,-0.345474 -0.304941,-0.572631 -0.122801,-0.226999 -0.187705,-0.33006 -0.06507,-0.103063 -0.215698,-0.319627"></path><path id="STROKE_ba4bda75-264f-4ae9-aa23-e1ff8f0187b5" opacity="1" fill="none" stroke="#000000" stroke-width="0.415484" stroke-opacity="1" stroke-linecap="round" stroke-linejoin="round" d="m 27.134683,43.513718 q 0.0077,0.06678 0.04231,1.020683 0.03468,0.954058 -0.109282,1.902182 l -0.0017,0.02808 -0.06585,0.0096 -0.111189,0.03791 q -0.01384,0.01124 -0.370478,0.09182 -0.356796,0.08075 -0.635169,0.0663 -0.278375,-0.01429 -0.460831,-0.07159 -0.182457,-0.0573 -0.246084,-0.08059 -0.06347,-0.02329 -0.241467,-0.07352 l -0.05585,-0.105001 q -0.12048,-0.269164 -0.111096,-1.930542 l 0.06903,-0.2575"></path><path id="STROKE_6fa4019f-b039-49f9-85fa-a254460803fb" opacity="1" fill="none" stroke="#000000" stroke-width="0.415484" stroke-opacity="1" stroke-linecap="round" stroke-linejoin="round" d="m 22.636315,20.85654 q -0.0032,0.05137 -0.314483,0.907029 -0.311304,0.855815 -0.502188,1.33742 -0.190726,0.481768 -0.386063,0.626733 -0.05011,-0.0565 -0.06998,-0.626092 -0.01957,-0.569578 0.102605,-1.528459 l 0.04739,-0.142235"></path><path id="STROKE_8c8ec764-eb6f-4294-a07d-ce81fa7652f1" opacity="1" fill="none" stroke="#000000" stroke-width="0.413726" stroke-opacity="1" stroke-linecap="round" stroke-linejoin="round" d="m 22.944277,23.771544 q 0.05966,-0.241924 0.149048,-0.544853 0.08924,-0.302935 0.236381,-0.706196 0.147298,-0.403267 0.279167,-0.673769 0.132032,-0.270666 0.213633,-0.38914 0.08144,-0.118476 0.143483,-0.178035 0.06204,-0.05955 0.160186,-0.07352 0.04613,0.02343 0.108006,0.815843 0.06188,0.792562 -0.08097,1.684659 -0.0032,0 -0.0064,0.02247"></path><path id="STROKE_bc5deea7-4342-4323-8404-f5ae0c8a8ee7" opacity="1" fill="none" stroke="#000000" stroke-width="0.415484" stroke-opacity="1" stroke-linecap="round" stroke-linejoin="round" d="m 24.514467,22.248705 q -0.07429,0.0655 -1.394416,0.215599"></path><path id="STROKE_3a16137a-ff4b-409f-aa26-e9c8d3fc15d4" opacity="1" fill="none" stroke="#000000" stroke-width="0.415484" stroke-opacity="1" stroke-linecap="round" stroke-linejoin="round" d="m 25.344656,21.274096 q 0.01064,-0.01061 0.121691,-0.01557 0.110875,-0.0049 -0.0072,0.608431 -0.118189,0.613245 -0.235263,1.082332 -0.117236,0.469081 -0.0614,0.746809 0.02435,0.0066 0.04598,0.0284 0.02164,0.02184 0.912272,-0.414343"></path><path id="STROKE_a7b036a6-e796-47d3-9cc1-afedbceecf70" opacity="1" fill="none" stroke="#000000" stroke-width="0.415484" stroke-opacity="1" stroke-linecap="round" stroke-linejoin="round" d="m 27.267986,21.413439 0.0046,0.02025 q 0.0066,0.06132 -0.05456,0.379506 -0.06124,0.318343 -0.08097,0.616936 -0.01957,0.298756 0.0017,0.543893 0.02038,0.245142 0.0905,0.398612 0.07,0.153473 0.144914,0.208053 0.07508,0.05475 0.116921,0.05619 0.04185,0.0017 0.118824,-0.02616 0.07715,-0.02744 0.18977,-0.137096 0.112624,-0.109648 0.289989,-0.483375 0.177366,-0.373724 0.330391,-0.955346 l 0.06203,-0.134689"></path><path id="STROKE_94776127-600c-4eff-84a7-1cf12473ad86" opacity="1" fill="none" stroke="#000000" stroke-width="0.415484" stroke-opacity="1" stroke-linecap="round" stroke-linejoin="round" d="m 29.417673,21.663232 q 0.01939,0.04028 0.01655,0.40728 -0.0027,0.366983 -0.02656,0.634277 -0.02385,0.267291 0.02737,0.526716 0.05123,0.259426 0.157003,0.30646 0.105782,0.04687 0.187388,0.04752 0.08176,0 0.143322,-0.01443 0.06155,-0.01525 0.271854,-0.08588"></path><path id="STROKE_c1100430-d2c3-4a23-97e0-1dff5457ba85" opacity="1" fill="none" stroke="#000000" stroke-width="0.415484" stroke-opacity="1" stroke-linecap="round" stroke-linejoin="round" d="m 30.53992,22.391744 q -0.214909,0.07513 -1.141655,0.477109"></path><path id="STROKE_dd64a131-4eab-4674-9420-11efe574c18f" opacity="1" fill="none" stroke="#000000" stroke-width="0.415484" stroke-opacity="1" stroke-linecap="round" stroke-linejoin="round" d="m 30.668605,17.919708 q 0.155252,0.241924 0.523506,1.005594 0.368249,0.763825 0.619578,1.487522 0.251494,0.723534 0.336279,1.76059 0.08495,1.037062 0.07523,1.385262 -0.0097,0.348362 -0.199474,1.133861 -0.189932,0.785659 -0.433626,1.293917 -0.243857,0.508253 -0.341051,0.650651 -0.0972,0.142393 -0.143641,0.229082 -0.04645,0.08685 -0.514593,0.556417 -0.468305,0.469563 -1.022829,0.836071 -0.554679,0.366661 -0.887297,0.556094 -0.332776,0.189592 -0.454306,0.241123 -0.121533,0.05154 -0.424243,0.13517 -0.302714,0.08365 -0.563111,0.128105 -0.260557,0.04433 -1.243141,0.02266 -0.982735,-0.02184 -1.11556,-0.03854 -0.132823,-0.01671 -0.757817,-0.247867 -0.625147,-0.231171 -0.83528,-0.347558 Q 23.076935,28.591636 22.563456,28.17119 22.049815,27.750749 21.807231,27.482974 21.564488,27.215202 21.400965,26.98997 21.2376,26.764741 21.054188,26.496966 20.870624,26.229034 20.60529,25.722223 q -0.265488,-0.506974 -0.362045,-0.726745 -0.09656,-0.219931 -0.156209,-0.393633 -0.05966,-0.173538 -0.205201,-0.84249 -0.145391,-0.66879 -0.190247,-1.146222 -0.04488,-0.477592 -0.0041,-1.019883 0.0409,-0.542128 0.09656,-0.831575 0.05583,-0.289446 0.241787,-0.78903 0.186113,-0.499586 0.28299,-0.703948 0.09687,-0.204363 0.454784,-0.733003 0.357909,-0.528486 0.713114,-0.899642 0.355367,-0.371157 0.728387,-0.708603 l 0.576949,-0.39315 q 0.461785,-0.279654 1.165516,-0.528805 0.703568,-0.249151 1.177758,-0.288003 0.474192,-0.03886 0.680667,-0.03049 0.206635,0.0083 0.37541,0.03791 0.168934,0.02953 0.273441,0.06084 0.104508,0.0313 0.471806,0.132605 0.367293,0.101456 0.539252,0.162944 0.171795,0.06164 0.425514,0.178517 0.253556,0.116867 0.32323,0.156198 0.06968,0.0395 0.07016,0.03964"></path><path id="STROKE_19f508b6-588f-4022-af04-16f3b128ae47" opacity="1" fill="none" stroke="#000000" stroke-width="0.415484" stroke-opacity="1" stroke-linecap="round" stroke-linejoin="round" d="m 30.252478,21.254191 q -0.05154,-0.0032 -0.326413,0.0565 -0.274876,0.05987 -0.829875,0.122813"></path><path id="STROKE_765a2ee3-a857-4cda-97df-a2a4a0ff8b98" opacity="1" fill="none" stroke="#000000" stroke-width="0.415484" stroke-opacity="1" stroke-linecap="round" stroke-linejoin="round" d="m 28.329784,16.423516 q 0.152231,0.111572 0.323709,0.221861 0.171481,0.11029 0.302556,0.189751 0.131074,0.07946 0.232719,0.138385 0.101489,0.05907 0.143005,0.08204 0.04167,0.02312 0.108805,0.06485 0.06713,0.04191 0.07381,0.04704 0.0066,0.0051 0.08669,0.05443 0.07985,0.04945 0.159072,0.09889 0.07906,0.04945 0.243059,0.167599 0.01971,0.0053 0.614969,0.556097"></path><path id="STROKE_7cb15d52-8791-4cc8-a1b2-5c69409b2a1a" opacity="1" fill="none" stroke="#000000" stroke-width="0.415484" stroke-opacity="1" stroke-linecap="round" stroke-linejoin="round" d="m 24.463564,4.1264986 0.0081,0.089742 0.02642,0.1749806 q 0.0036,0.010735 0.06347,0.5320163 0.05981,0.5212585 0.07635,0.8887251 0.01668,0.3676259 0.02769,0.5610678 0.01114,0.1936058 0.03594,0.4398715 0.02467,0.2464197 0.02832,0.2852683 0.0036,0.038862 0.0074,0.1035449 0.0036,0.064697 0.03928,0.4665204 0.03531,0.4018183 0.06824,0.9612847 0.03279,0.5594654 0.05091,1.0237322 0.01813,0.4642726 0.03053,0.7147056 0.0124,0.250435 0.01957,0.355586 0.0072,0.105151 0.02642,0.3169 0.01908,0.211745 0.0358,0.391702 0.01673,0.1798 0.05123,0.443722 0.03436,0.26408 0.06507,0.53972 0.03053,0.275481 0.07874,0.577769 0.04821,0.302448 0.0622,0.388654 0.01416,0.08637 0.02674,0.179157 0.01258,0.09264 0.03517,0.303253 0.02259,0.210621 0.03675,0.320591 0.01416,0.109965 0.03008,0.224426 0.01591,0.114304 0.01591,0.116551 0,0.0022 0.103078,1.044761 l 0.01971,0.0355"></path><path id="STROKE_6ce6c2ad-124f-4df6-a1a1-310ceae8109f" opacity="1" fill="none" stroke="#000000" stroke-width="0.415484" stroke-opacity="1" stroke-linecap="round" stroke-linejoin="round" d="m 21.162046,26.626189 q -0.09703,0.09038 -0.336437,0.337122 -0.23956,0.246903 -0.335003,0.357032 -0.0956,0.109965 -0.210449,0.235504 -0.115009,0.125541 -0.172596,0.184294 -0.05758,0.05876 -0.120099,0.118958 -0.06235,0.0602 -0.107691,0.106276 -0.04533,0.04607 -0.286963,0.3177 -0.241787,0.271786 -0.362046,0.410004 -0.120099,0.138221 -0.50028,0.613247 -0.380175,0.474865 -0.456533,0.562354 -0.07651,0.0875 -0.142843,0.14593 -0.06632,0.05859 -0.254832,0.254288 -0.188498,0.195691 -0.333412,0.342743 -0.144913,0.147212 -0.318938,0.316413 -0.174182,0.169046 -0.372703,0.375654 -0.198522,0.206611 -0.370477,0.361044 -0.171955,0.154276 -0.273283,0.255253 -0.101174,0.101138 -0.145076,0.145124 -0.04393,0.04415 -0.253875,0.251398 -0.209975,0.20725 -0.320053,0.312882 -0.109918,0.105794 -0.182293,0.172578 -0.07222,0.06678 -0.08097,0.07224 -0.0089,0.0055 -0.169091,0.170006 -0.160185,0.164387 -0.280442,0.292013 -0.120258,0.127627 -0.244332,0.247709 -0.124076,0.120079 -0.364908,0.362005 -0.240993,0.241769 -0.311623,0.309032 -0.07062,0.06726 -0.0878,0.08188 -0.01718,0.01479 -0.131712,0.124572 -0.114688,0.109807 -0.465442,0.434411 -0.350912,0.32444 -0.476098,0.437459 -0.125191,0.112855 -0.185319,0.169365 -0.06029,0.0565 -0.101806,0.09119 -0.04152,0.03467 -0.113254,0.145283 l -0.05059,0.05603"></path><path id="STROKE_02a21361-5099-443c-9d65-1942dd35238a" opacity="1" fill="none" stroke="#000000" stroke-width="0.415484" stroke-opacity="1" stroke-linecap="round" stroke-linejoin="round" d="m 31.896,25.74565 q -0.0086,0.0051 -0.04487,0 -0.03612,-0.0055 -0.06791,-0.0017 0.06045,0.05234 0.124073,0.09439 0.06347,0.04205 0.162891,0.108681 0.09942,0.06646 0.305099,0.204683 0.205678,0.138219 0.338183,0.220736 0.132508,0.08235 0.273282,0.163744 0.140942,0.08124 0.280764,0.161338 0.139981,0.0801 0.365065,0.202922 0.225248,0.122806 0.329599,0.180922 0.104507,0.05811 0.217766,0.122967 0.11326,0.06486 0.46735,0.274679 0.353932,0.209819 0.933907,0.560908 0.579974,0.35093 0.959834,0.585797 0.379701,0.23486 0.590315,0.365053 0.21061,0.130199 0.490733,0.318986 0.280444,0.18879 0.425356,0.28399 0.145072,0.09518 0.224608,0.145441 0.0797,0.05009 0.265808,0.163267 0.18627,0.113014 0.320528,0.197779 0.134412,0.0846 0.331821,0.218329 0.197567,0.133565 0.327369,0.224268 0.129803,0.09086 0.349479,0.235985 0.219515,0.145288 0.51014,0.325569 0.290621,0.180441 0.295874,0.184613 0.0051,0.0046 0.218723,0.1432 0.213312,0.138862 0.37779,0.247703 0.164479,0.108687 0.383363,0.282384 0.218881,0.173538 0.333729,0.265846 0.114851,0.09232 0.16082,0.130836 0.04598,0.03854 0.120893,0.09648 0.07493,0.05812 0.122965,0.09761 0.04803,0.0395 0.131552,0.11366 0.08351,0.07433 0.157639,0.13838"></path><path id="STROKE_3e7d99ff-7ef8-42ea-a015-b08c428cec1f" opacity="1" fill="none" stroke="#000000" stroke-width="0.415484" stroke-opacity="1" stroke-linecap="round" stroke-linejoin="round" d="m 36.809066,6.193714 0.04153,0.020202 q 0.09528,0.056671 0.09814,0.057314 0.0027,0 0.04469,0.028575 0.04198,0.027762 0.07556,0.053777 0.03355,0.026169 0.156845,0.1104481 0.123121,0.084118 0.177365,0.1197582 0.05408,0.035634 0.119937,0.077702 0.06585,0.042229 0.14412,0.094393 0.0781,0.052174 0.143643,0.094716 0.06554,0.042547 0.10212,0.065819 0.03643,0.023297 0.103235,0.067902 0.06665,0.044458 0.09624,0.065982 0.02977,0.021525 0.163206,0.1175152 0.133623,0.095999 0.17848,0.1314764 0.04501,0.035495 0.174659,0.1298742 0.129484,0.094558 0.240358,0.1757847 0.110712,0.081238 0.175932,0.1268263 0.06506,0.045414 0.108962,0.074325 0.04374,0.028892 0.184364,0.1266615 0.140621,0.097766 0.220631,0.153957 0.08001,0.056185 0.153029,0.1094829 0.07301,0.053461 0.08111,0.060684 0.0081,0.00708 0.120098,0.088616 0.112147,0.081558 0.232721,0.1762682 0.120735,0.094714 0.159549,0.1250596 0.03865,0.030357 0.146027,0.1194403 0.107371,0.088936 0.184522,0.1504201 0.077,0.061488 0.146186,0.1195992 0.0692,0.058269 0.109759,0.091505 0.04072,0.033217 0.08066,0.064697 0.04008,0.031626 0.09863,0.080423 0.05854,0.048807 0.09258,0.079783 0.03405,0.031123 0.09274,0.083313 0.05869,0.052336 0.121051,0.1171918 0.0622,0.064852 0.122964,0.1252187 0.06076,0.060355 0.132188,0.139504 0.07142,0.079144 0.184364,0.2138336"></path><path id="STROKE_5dfd43d1-3571-4043-b65f-806b72dc170d" opacity="1" fill="none" stroke="#000000" stroke-width="0.415484" stroke-opacity="1" stroke-linecap="round" stroke-linejoin="round" d="m 12.331218,18.24383 0.0017,-0.414984 q -0.0061,-0.08188 -0.02611,-0.400059 -0.01989,-0.318338 -0.03135,-0.489309 -0.01146,-0.170971 -0.01416,-0.286715 -0.0027,-0.115585 0.0041,-0.230211 0.0066,-0.11462 0.01637,-0.217205 0.0097,-0.10258 0.03102,-0.213833 0.02133,-0.11109 0.02926,-0.147372 0.0081,-0.03627 0.03039,-0.103062 0.02242,-0.06678 0.04883,-0.126502 0.02642,-0.05987 0.0692,-0.147049 0.04261,-0.08733 0.123914,-0.186544 0.08113,-0.09905 0.09354,-0.110448 0.0124,-0.01142 0.121208,-0.07465 0.108647,-0.06341 0.2814,-0.121848 0.17259,-0.05843 0.287599,-0.07946 0.115009,-0.02089 0.204407,-0.03563 0.08924,-0.01461 0.204884,-0.02329 0.115645,-0.0085 0.120257,-0.0081 0.0047,0 0.09082,-0.0083 0.08606,-0.0086 0.223973,-0.0083 0.137915,0 0.281078,0.01043 0.143007,0.01011 0.175616,0.01575 0.03261,0.0054 0.110396,0.01653 0.07778,0.01092 0.178318,0.03918 0.10069,0.0284 0.169091,0.0626 0.06824,0.03422 0.07382,0.03518 0.0053,0.0018 0.05982,0.05361 0.05456,0.05266 0.0746,0.07834 0.02003,0.02553 0.04469,0.07577 0.02466,0.05009 0.03166,0.05667 0.0069,0.0064 0.06251,0.226351 0.05552,0.219777 0.07016,0.356713 0.01461,0.136937 0.02687,0.332788 0.01226,0.195694 0.017,0.35045 0.0046,0.154758 0.0047,0.227477 0,0.07256 0.0078,0.180764 0.0077,0.108199 0.0097,0.229087 0.0022,0.120723 0.0053,0.176427 0.0032,0.05586 0.0027,0.303089 0,0.247066 0.0017,0.326529 0.0027,0.07947 0.0017,0.0931 -0.0017,0.01365 0.01831,0.345473"></path><path id="STROKE_b082d7da-a559-4444-926e-0d4dcfc26baf" opacity="1" fill="none" stroke="#000000" stroke-width="0.415484" stroke-opacity="1" stroke-linecap="round" stroke-linejoin="round" d="m 14.929163,11.728656 q 0.04469,0.08316 0.05982,0.115107 0.01511,0.03176 0.01957,0.03722 0.0046,0.0055 0.06188,0.222343 0.05759,0.216883 0.06284,0.489633 0.0051,0.272909 -0.03405,0.44372 -0.03896,0.170808 -0.09544,0.272427 -0.05663,0.10162 -0.08765,0.142717 -0.03116,0.04127 -0.08733,0.100336 -0.05615,0.05907 -0.23129,0.20404 -0.175138,0.145124 -0.215224,0.16471 -0.04022,0.01975 -0.04436,0.02361 -0.0041,0.0037 -0.185955,0.0525 -0.181978,0.04865 -0.34073,0.0456 -0.158431,-0.0032 -0.271055,-0.0435 -0.112462,-0.04046 -0.188977,-0.103227 -0.07652,-0.06245 -0.141414,-0.12602 -0.06474,-0.06341 -0.09751,-0.100013 -0.03292,-0.03659 -0.06618,-0.07401 -0.03322,-0.03722 -0.06681,-0.08412 -0.03373,-0.04688 -0.09512,-0.175467 -0.06141,-0.128588 -0.09942,-0.222661 -0.03787,-0.09407 -0.0614,-0.315612 -0.02354,-0.221543 -0.01416,-0.311762 0.0096,-0.09022 0.02435,-0.174986 0.01497,-0.08493 0.04247,-0.158607 0.0275,-0.0737 0.06491,-0.140791 0.03738,-0.0671 0.07683,-0.115904 0.03945,-0.04881 0.122165,-0.124896 0.08272,-0.07626 0.195339,-0.150904 0.112623,-0.07481 0.201863,-0.124254 0.08908,-0.04945 0.166387,-0.08252 0.07731,-0.03289 0.163526,-0.05747 0.08621,-0.02458 0.187863,-0.04737 0.101804,-0.0228 0.169253,-0.02922 0.06745,-0.0063 0.116596,-0.0049 0.04915,0.0018 0.159867,0.01238 0.110873,0.01106 0.221906,0.06115 0.110873,0.05025 0.191203,0.103067 0.08033,0.05298 0.223972,0.178835"></path><ellipse id="STROKE_6b5f387b-c87e-4712-b9a7-3649ce6ac416" opacity="1" fill="#000000" stroke="#000000" stroke-width="0.0159803" stroke-opacity="1" fill-opacity="1" cx="14.453053" cy="12.115067" rx="0.20679232" ry="0.20869608"></ellipse><ellipse id="STROKE_862b142b-6b12-474b-9d71-4e95845613da" opacity="1" fill="#000000" stroke="#000000" stroke-width="0.0159803" stroke-opacity="1" fill-opacity="1" cx="13.626547" cy="12.061601" rx="0.20679232" ry="0.20869608"></ellipse><path id="STROKE_8d071cbc-0f80-4f95-a612-c81ca7a0769f" opacity="1" fill="none" stroke="#000000" stroke-width="0.415484" stroke-opacity="1" stroke-linecap="round" stroke-linejoin="round" d="m 14.51033,12.558465 q -0.0084,0.01398 -0.03612,0.102101 -0.02769,0.08814 -0.06569,0.160696 -0.03801,0.07256 -0.09926,0.136132 -0.06108,0.06374 -0.06935,0.07193 -0.0082,0.0081 -0.104824,0.05955 -0.09671,0.05137 -0.199157,0.05443 -0.102605,0.0032 -0.133302,-0.0048 -0.03084,-0.0079 -0.10149,-0.05443 -0.07063,-0.04656 -0.08526,-0.06341 -0.01448,-0.01684 -0.03801,-0.06855 l -0.04645,-0.07416"></path><path id="STROKE_52c58d1d-32ed-4ba1-993c-fb900d3d1825" opacity="1" fill="none" stroke="#000000" stroke-width="0.415484" stroke-opacity="1" stroke-linecap="round" stroke-linejoin="round" d="m 23.43342,33.908394 q 0.01195,0.03149 0.07062,2.377532 l -0.0061,0.09007"></path><path id="STROKE_7e40ea48-131d-4089-a25f-f5c067f90125" opacity="1" fill="none" stroke="#000000" stroke-width="0.415484" stroke-opacity="1" stroke-linecap="round" stroke-linejoin="round" d="m 23.448372,33.694561 0.0665,-0.008 q 0.03882,-0.01911 0.554361,-0.04255 0.515553,-0.02361 0.797427,-0.0313 0.28203,-0.0077 0.876321,-0.133246 l 0.151911,0.01944"></path><path id="STROKE_4171d5a5-d746-4e67-9de9-e71699ddda0d" opacity="1" fill="none" stroke="#000000" stroke-width="0.415484" stroke-opacity="1" stroke-linecap="round" stroke-linejoin="round" d="m 25.888206,33.407363 0.0207,0.0369 q -0.01448,0.03773 0.173388,2.530841"></path><path id="STROKE_c7bf6bda-7f11-4279-9172-33859078eabe" opacity="1" fill="none" stroke="#000000" stroke-width="0.415484" stroke-opacity="1" stroke-linecap="round" stroke-linejoin="round" d="m 26.13317,36.128602 q -0.03707,0.0202 -0.481665,0.05699 -0.44476,0.03677 -0.704046,0.04865 -0.259446,0.01206 -0.506801,0.05956 -0.247356,0.04767 -0.346299,0.06966 -0.09877,0.02184 -0.14173,0.02425 -0.04311,0.0022 -0.08066,-0.0027 -0.03756,-0.0052 -0.07905,0"></path><path id="STROKE_12a312d7-c594-4504-a90d-cf077b7ecf16" opacity="1" fill="none" stroke="#000000" stroke-width="0.415484" stroke-opacity="1" stroke-linecap="round" stroke-linejoin="round" d="m 26.124266,34.787327 q 0.01353,0.0032 0.480553,-0.03276 0.467035,-0.03563 0.797582,-0.07047 0.330707,-0.03486 0.587288,-0.09825 l 0.135053,0.0037"></path><path id="STROKE_838079dd-2642-476e-8f00-56af3759b958" opacity="1" fill="none" stroke="#000000" stroke-width="0.415484" stroke-opacity="1" stroke-linecap="round" stroke-linejoin="round" d="m 28.26902,34.529832 q -0.472121,-0.315454 -0.54259,-0.362811 -0.07063,-0.04752 -0.337867,-0.191199 -0.03594,0.0146 -0.128689,-0.0058"></path><path id="STROKE_5f733c8d-ec04-4759-bec0-060d03e95ace" opacity="1" fill="none" stroke="#000000" stroke-width="0.415484" stroke-opacity="1" stroke-linecap="round" stroke-linejoin="round" d="m 28.201415,34.552466 q -0.01926,0.02744 -0.150482,0.162943 -0.131392,0.13565 -0.307958,0.283345 -0.176414,0.147529 -0.232088,0.197938"></path><path id="STROKE_852dc60b-665f-4930-b8f6-1350dd2e3068" opacity="1" fill="none" stroke="#000000" stroke-width="0.415484" stroke-opacity="1" stroke-linecap="round" stroke-linejoin="round" d="m 28.581274,33.792491 q 0.01195,0.03144 0.07063,2.37753 l -0.0061,0.09007"></path><path id="STROKE_595a2b10-3949-49d5-a684-4fb48b5c7e20" opacity="1" fill="none" stroke="#000000" stroke-width="0.415484" stroke-opacity="1" stroke-linecap="round" stroke-linejoin="round" d="m 28.596389,33.578658 0.06632,-0.008 q 0.03882,-0.01911 0.554362,-0.04269 0.515548,-0.02343 0.79758,-0.03112 0.281876,-0.0077 0.876162,-0.133242 l 0.152074,0.01943"></path><path id="STROKE_450601fd-fb08-419f-8d1d-32ac3c369a45" opacity="1" fill="none" stroke="#000000" stroke-width="0.415484" stroke-opacity="1" stroke-linecap="round" stroke-linejoin="round" d="m 31.03606,33.291461 0.0207,0.0369 q -0.01448,0.03773 0.173388,2.530681"></path><path id="STROKE_cddcf145-36c9-47f1-8602-9bac61197178" opacity="1" fill="none" stroke="#000000" stroke-width="0.415484" stroke-opacity="1" stroke-linecap="round" stroke-linejoin="round" d="m 31.281031,36.012694 q -0.03689,0.02007 -0.481666,0.057 -0.444607,0.03677 -0.704051,0.04863 -0.259446,0.01207 -0.506802,0.05956 -0.247354,0.04769 -0.346135,0.06967 -0.09894,0.02184 -0.141893,0.02426 -0.04298,0.0022 -0.08049,-0.0027 -0.03756,-0.0052 -0.07905,0"></path><path id="STROKE_c7e8186f-1fa5-4dbf-b771-06c53483f983" opacity="1" fill="none" stroke="#000000" stroke-width="0.415484" stroke-opacity="1" stroke-linecap="round" stroke-linejoin="round" d="m 15.555111,18.49683 -0.01813,0.02438 -0.07874,0.07706 q -0.03549,0.03677 -0.179273,0.110129 -0.143798,0.07336 -0.234789,0.110926 -0.09099,0.03773 -0.281078,0.09393 -0.189928,0.05619 -0.272648,0.07143 -0.08255,0.01525 -0.310347,0.01925 -0.227787,0.0041 -0.313685,0.0018 -0.08574,-0.0022 -0.240358,-0.02089 -0.154457,-0.01865 -0.237334,-0.03662 -0.08303,-0.01816 -0.21761,-0.06807 -0.134731,-0.05009 -0.240988,-0.109806 -0.106104,-0.05971 -0.174187,-0.111249 -0.06791,-0.05154 -0.129163,-0.108041 -0.06125,-0.0565 -0.08351,-0.07754 -0.02227,-0.02089 -0.05027,-0.04624 -0.02813,-0.02534 -0.09879,-0.112536"></path><path id="STROKE_eb5f72cc-c205-4a48-b0f6-d4b6d4fc0d90" opacity="1" fill="none" stroke="#000000" stroke-width="0.415484" stroke-opacity="1" stroke-linecap="round" stroke-linejoin="round" d="m 15.560839,15.345841 q 0.207743,0.08107 0.287278,0.08894 0.02543,-0.02343 0.0684,-0.05955 0.04298,-0.03613 0.08812,-0.08605 0.04501,-0.04992 0.144751,-0.227156 0.0999,-0.17707 0.291577,-0.541005 0.191682,-0.363936 0.507121,-0.83334 -0.0017,-0.01 0.02687,-0.06565"></path><path id="STROKE_44519664-61e6-42f4-ba34-7d8ed03ce17d" opacity="1" fill="none" stroke="#000000" stroke-width="0.415484" stroke-opacity="1" stroke-linecap="round" stroke-linejoin="round" d="m 17.489573,13.040874 q -0.0059,0.163908 -0.05074,0.289606 -0.04501,0.12586 -0.09337,0.202275 -0.04836,0.07658 -0.131869,0.160695 -0.08351,0.08396 -0.106576,0.08637 -0.02309,0.0022 -0.05281,-0.0172 -0.02977,-0.01943 -0.04343,-0.03549 -0.01384,-0.01606 -0.0345,-0.04623 -0.0207,-0.03017 -0.03517,-0.13276 -0.01448,-0.102585 0.02354,-0.227964 0.03801,-0.125377 0.08383,-0.183653 0.04581,-0.05843 0.04645,-0.06035 0,-0.0018 0.04995,-0.0369 0.04947,-0.03531 0.07253,-0.04478 0.02291,-0.0097 0.05313,-0.01639 0.03022,-0.0069 0.05472,-0.0081 0.02449,-0.0018 0.06617,0.0032"></path><path id="STROKE_4bcc3b4b-8884-4ecc-9a6b-d64670e02a44" opacity="1" fill="none" stroke="#000000" stroke-width="0.415484" stroke-opacity="1" stroke-linecap="round" stroke-linejoin="round" d="m 35.163794,17.09263 q 0.08829,-0.131962 0.151276,-0.214639 0.06299,-0.08268 0.126621,-0.165351 0.06348,-0.08252 0.102288,-0.133724 0.03864,-0.05121 0.09575,-0.132282 0.05694,-0.08091 0.09512,-0.133725 0.03801,-0.05283 0.225405,-0.309996 0.187386,-0.257018 0.286171,-0.392831 0.09879,-0.135814 0.195496,-0.270662 0.09671,-0.134689 0.151755,-0.213028 0.05504,-0.07834 0.133779,-0.161178"></path><path id="STROKE_69a1a590-8bc1-46cc-91cd-ba38419efdfd" opacity="1" fill="none" stroke="#000000" stroke-width="0.415484" stroke-opacity="1" stroke-linecap="round" stroke-linejoin="round" d="m 36.747666,14.872904 -0.03355,-0.02425 q -0.05105,-0.0663 -0.07126,-0.09312 -0.02038,-0.02666 -0.02322,-0.02939 -0.0027,-0.0027 -0.02927,-0.04369 -0.02643,-0.04077 -0.04501,-0.07143 -0.01863,-0.03099 -0.03801,-0.07626 -0.01957,-0.04542 -0.0404,-0.109006 -0.02084,-0.06357 -0.028,-0.09503 -0.0074,-0.03149 -0.02782,-0.143359 -0.02038,-0.112053 -0.02466,-0.161336 -0.0041,-0.04913 -0.0077,-0.104191 -0.0036,-0.05523 -0.0022,-0.137096 0.0017,-0.08204 0.0103,-0.141593 0.0087,-0.05972 0.01656,-0.08573 0.0078,-0.02617 0.02242,-0.07497 0.01447,-0.04897 0.06824,-0.166957 0.05376,-0.117993 0.07731,-0.158771 0.02341,-0.0406 0.06394,-0.110448 0.0404,-0.06966 0.09671,-0.148013 0.05647,-0.07834 0.09385,-0.1204 0.03738,-0.04223 0.05711,-0.06084 0.01989,-0.01862 0.03833,-0.03708 0.01845,-0.01848 0.09863,-0.07609 0.08001,-0.05763 0.160983,-0.09696 0.08097,-0.03918 0.185158,-0.07449 0.104192,-0.03518 0.176567,-0.05746 0.07238,-0.02229 0.208863,-0.04511 0.13648,-0.0228 0.211087,-0.02985 0.07476,-0.0072 0.219518,0.0018 0.144913,0.0081 0.223335,0.02089 0.07826,0.01252 0.14857,0.03353"></path><path id="STROKE_13783d33-9ea0-4df1-8b51-98c82d3ab095" opacity="1" fill="none" stroke="#000000" stroke-width="0.415484" stroke-opacity="1" stroke-linecap="round" stroke-linejoin="round" d="m 39.623989,13.093688 q 0.02656,0.03886 0.04693,0.07289 0.02052,0.03404 0.05265,0.09664 0.03229,0.06245 0.04597,0.08975 0.01384,0.0273 0.05854,0.135972 0.04469,0.108847 0.08749,0.297314 0.04298,0.188628 0.05759,0.295868 0.01465,0.107235 0.01957,0.15411 0.0049,0.04705 0.0064,0.07481 0.0017,0.02776 0.0017,0.09007 0,0.06228 -0.0022,0.09664 -0.0022,0.03436 -0.0078,0.07481 -0.0059,0.04046 -0.01528,0.08284 -0.0093,0.04237 -0.02801,0.107394 -0.01863,0.06502 -0.04581,0.141757 -0.02719,0.0769 -0.04708,0.128909 -0.01972,0.05202 -0.06632,0.142234 -0.04661,0.09022 -0.08653,0.146088 -0.04008,0.0557 -0.09703,0.11671 -0.05694,0.06116 -0.104665,0.09792 -0.04789,0.0369 -0.06411,0.04945 -0.01623,0.01239 -0.07047,0.04542 -0.05424,0.0329 -0.0797,0.0472 -0.02575,0.01443 -0.0277,0.01639 -0.0022,0.0018 -0.08272,0.03581 -0.08066,0.03404 -0.152708,0.05218 -0.07206,0.01815 -0.12694,0.02311 -0.05504,0.0051 -0.10292,0.0067 -0.04789,0.0018 -0.06267,0.0022 -0.01479,0 -0.07889,-0.0027 -0.06426,-0.0032 -0.09704,-0.0085 -0.03292,-0.0056 -0.06458,-0.01479 -0.03184,-0.0091 -0.05345,-0.01511 -0.02164,-0.0059 -0.06394,-0.02298 -0.0423,-0.01702 -0.08876,-0.0369 -0.04644,-0.01975 -0.200429,-0.0854"></path><path id="STROKE_2bafe04f-bb69-4f30-8174-d8253e562256" opacity="1" fill="none" stroke="#000000" stroke-width="0.415484" stroke-opacity="1" stroke-linecap="round" stroke-linejoin="round" d="m 38.016734,15.607674 -0.02687,0.04063 q -0.02164,0.02762 -0.184998,0.252199 -0.163365,0.224592 -0.240038,0.325565 -0.07683,0.100977 -0.128847,0.162302 -0.05201,0.06132 -0.09671,0.114143 -0.04469,0.05266 -0.09448,0.107235 -0.04964,0.05459 -0.09497,0.103385 -0.04517,0.04896 -0.084,0.09312 -0.03865,0.04415 -0.102436,0.117352 -0.0638,0.0732 -0.07859,0.09167 -0.01479,0.01848 -0.01749,0.02006 -0.0027,0.0017 -0.112939,0.143035 -0.110397,0.141592 -0.176409,0.230853 -0.06618,0.08926 -0.09593,0.127462 -0.02957,0.03823 -0.05105,0.06679 -0.02164,0.0284 -0.0905,0.116063 -0.06887,0.08766 -0.111031,0.141915 -0.04216,0.05427 -0.07556,0.09407 -0.01258,0.0041 -0.01591,0.0162"></path><path id="STROKE_297c3f98-0595-4106-8900-7b2a9eb431ea" opacity="1" fill="none" stroke="#000000" stroke-width="0.415484" stroke-opacity="1" stroke-linecap="round" stroke-linejoin="round" d="m 38.399933,12.444002 q -0.02529,0.04656 -0.07937,0.142399 -0.05424,0.09584 -0.08972,0.158124 -0.03531,0.06229 -0.04995,0.08894 -0.01465,0.02681 -0.04518,0.0769 -0.03072,0.05009 -0.05648,0.09327 -0.02575,0.04305 -0.06538,0.110612 -0.03945,0.06759 -0.104351,0.185738 -0.06491,0.117992 -0.08876,0.177715 -0.02417,0.05972 -0.03819,0.127302 -0.01416,0.06759 -0.01542,0.09151 -0.0017,0.02375 0.0046,0.07224 0.0057,0.04864 0.0072,0.05923 0.0017,0.01061 0.02642,0.05859 0.02498,0.048 0.04565,0.07208 0.0207,0.02393 0.03851,0.044 0.01781,0.02007 0.0433,0.03964 0.02543,0.01957 0.0746,0.06325 0.04916,0.04383 0.07954,0.06421 0.03021,0.02038 0.07619,0.0541 0.04581,0.03354 0.06951,0.0472 0.02372,0.01365 0.06714,0.03932 0.04361,0.02566 0.09878,0.04752 0.0552,0.02184 0.09416,0.03436 0.03896,0.01238 0.05679,0.01797 0.01768,0.0056 0.139187,0.02293 l 0.04757,-0.0091 0.04185,-0.01557 q 0.09354,-0.06421 0.114531,-0.08363 0.02084,-0.01956 0.05567,-0.06164 0.03468,-0.04223 0.08255,-0.113338 0.04789,-0.07096 0.09497,-0.156681 0.04708,-0.08557 0.05615,-0.100655 0.009,-0.01511 0.03517,-0.06261 0.02611,-0.04752 0.0509,-0.09584 0.0248,-0.04833 0.05123,-0.09728 0.02642,-0.04897 0.0708,-0.122329 0.04456,-0.07352 0.06283,-0.1082 0.01831,-0.03467 0.04248,-0.07706 0.02417,-0.04237 0.02945,-0.05474 0.0051,-0.01252 0.09894,-0.181082"></path><path id="STROKE_e38070e4-08d1-42d0-9c27-beaf91ca281a" opacity="1" fill="none" stroke="#000000" stroke-width="0.415484" stroke-opacity="1" stroke-linecap="round" stroke-linejoin="round" d="m 42.731759,8.6974242 q 0.414697,0.4764714 0.67637,0.8328569 0.261829,0.3562312 0.645987,0.9381729 0.384157,0.581778 0.681617,1.101436 0.297305,0.519652 0.67637,1.38526 0.378908,0.865768 0.58888,1.39778 0.209974,0.532016 0.57552,1.996256 0.365705,1.464088 0.513166,2.606938 0.147299,1.143012 0.156367,1.951952 0.0093,0.808935 -0.0087,1.235318 -0.01799,0.426543 -0.03116,0.701864 -0.01334,0.275317 -0.09736,1.215573 -0.084,0.940257 -0.167504,1.474517 -0.0835,0.534264 -0.178795,0.921312 -0.09512,0.387052 -0.539248,1.959014 -0.444128,1.571965 -0.986879,2.890923 -0.542753,1.318798 -1.02712,2.323268 -0.484214,1.004634 -0.61004,1.223924 -0.125665,0.219294 -0.313685,0.49959 -0.188025,0.28013 -0.506327,0.737817 -0.318297,0.457528 -0.33214,0.471654 -0.01397,0.01416 -0.216812,0.290728 -0.202657,0.276446 -0.738568,0.810546 -0.535752,0.53426 -1.030779,0.929663 -0.495027,0.395398 -1.208461,0.868494 -0.713277,0.473257 -1.052574,0.651455 -0.339301,0.178353 -0.841489,0.404546 -0.502343,0.226037 -1.401256,0.579215 -0.899069,0.353177 -1.566528,0.6065 -0.667622,0.253325 -1.008032,0.350612 -0.340415,0.09744 -1.319657,0.259262 -0.979083,0.16166 -1.08391,0.179641 -0.104665,0.01797 -0.331342,0.0451 -0.226677,0.02698 -1.266524,0.162303 -1.039686,0.135493 -1.548557,0.220094 -0.509028,0.08461 -1.132267,0.127144 -0.623243,0.04254 -1.018849,0.03112 -0.395766,-0.01155 -0.950445,-0.0801 -0.554682,-0.06855 -0.887936,-0.126821 -0.333254,-0.05827 -0.492961,-0.09535 -0.159545,-0.03709 -0.461304,-0.09263 -0.301758,-0.05554 -0.424721,-0.08188 -0.122818,-0.02618 -0.738424,-0.160543 -0.615605,-0.134206 -1.375807,-0.346757 -0.76004,-0.21271 -1.144833,-0.357833 -0.384963,-0.145119 -0.755597,-0.265041 -0.37064,-0.119918 -0.591427,-0.214957 -0.220631,-0.09488 -0.509823,-0.232937 -0.28919,-0.138062 -0.7435,-0.353979 -0.454463,-0.215923 -0.815079,-0.424617 -0.360615,-0.208855 -0.735861,-0.447089 -0.37541,-0.238238 -0.487236,-0.297314 -0.111827,-0.05907 -1.186354,-0.902208 -1.074364,-0.843133 -1.546007,-1.278669 -0.471805,-0.43537 -0.838626,-0.838954 -0.366977,-0.40359 -0.593491,-0.675374 -0.226357,-0.271786 -0.5511837,-0.706356 -0.324822,-0.434411 -0.714228,-0.98569 -0.389406,-0.551439 -0.459554,-0.651771 -0.07016,-0.100176 -0.352981,-0.537954 Q 8.0414138,32.486826 7.7931019,32.055305 7.5447909,31.623783 7.3532709,31.241869 7.1617518,30.859959 7.1603173,30.853856 7.158526,30.847553 6.9194863,30.36968 6.6799225,29.891766 6.3436474,28.872206 6.0072094,27.852646 5.8607093,27.305704 5.7142042,26.758757 5.6599595,26.487936 5.6057122,26.217111 5.4887987,25.62859 5.3718818,25.040063 5.3427712,24.862352 5.3135023,24.684801 5.1704966,23.279632 5.0274948,21.874467 5.02272,21.772046 5.01795,21.669784 5.02093,21.465904 q 0.00358,-0.20404 -0.00272,-0.287682 -0.00657,-0.08365 0,-0.721926 0.00699,-0.638128 0.056311,-1.034814 0.04931,-0.396681 0.1010129,-0.739747 0.051698,-0.342902 0.082877,-0.551921 0.031162,-0.209014 0.1138954,-0.610996 0.082723,-0.401979 0.2516532,-1.054236 0.1689332,-0.652258 0.2710556,-1.009126 0.1021215,-0.357031 0.2503766,-0.77587 0.148412,-0.418833 0.4563747,-1.248001 Q 6.9097263,12.602419 7.0519339,12.255179 7.193984,11.907781 7.5092656,11.290204 7.8243762,10.672622 8.1455412,10.203857 8.4667063,9.7350955 8.6494783,9.4631469 8.8320923,9.1912011 8.9722343,8.9825064 9.1123733,8.7739699 9.6767603,8.1385677 10.240983,7.5030114 10.538286,7.2400538 q 0.297302,-0.2629566 0.301757,-0.271626 0.0046,-0.00865 0.267719,-0.2446588 0.263259,-0.2359855 0.727111,-0.5613905 0.464012,-0.3255645 0.751292,-0.5157982 0.287126,-0.1903977 0.374617,-0.2488322 0.08749,-0.058436 0.295233,-0.1751439 0.207747,-0.11655 0.300008,-0.1700062 0.09227,-0.053297 0.404516,-0.2096608 0.312097,-0.1563631 0.505213,-0.2366271 0.193269,-0.080267 0.564382,-0.2151212 Q 15.401405,4.2565005 15.693777,4.1340117 15.986153,4.011686 16.576461,3.8331706 17.166775,3.6548139 17.576543,3.5507869 17.98615,3.44676 18.517926,3.2802846 19.04954,3.1138101 19.468694,3.0206995 q 0.419151,-0.09295 2.742542,-0.3631292 2.323553,-0.2701841 2.809511,-0.3093556 0.485807,-0.039179 1.045575,-0.043003 0.559611,-0.00364 0.985289,-0.016834 0.425672,-0.01315 0.816034,-0.0041 0.390357,0.00915 0.683846,0.024574 0.293642,0.015426 0.510456,0.023436 0.216816,0.00819 0.492327,0.046555 0.275669,0.038545 1.012964,0.1534739 0.737136,0.1147846 0.926748,0.1491372 0.189611,0.034172 0.490413,0.1138202 0.300807,0.079462 0.808243,0.2199307 0.507278,0.1404724 0.793286,0.2268386 0.286011,0.08653 0.381772,0.1102892 0.0956,0.023932 0.348522,0.1187931 0.252767,0.09488 0.797104,0.2706664 0.544502,0.1759442 0.828286,0.2799719 0.283781,0.1038675 0.489936,0.1889504 0.206319,0.085082 0.917999,0.4416323"></path><path id="STROKE_2b634f62-47de-4644-b854-fb145aead67d" opacity="1" fill="none" stroke="#000000" stroke-width="0.415484" stroke-opacity="1" stroke-linecap="round" stroke-linejoin="round" d="m 37.400492,4.6968812 0.04501,0.021021 q 0.10355,0.059721 0.106576,0.060355 0.0032,0 0.04868,0.030171 0.04565,0.029395 0.08208,0.056997 0.03658,0.027438 0.170527,0.11655 0.134096,0.088933 0.19279,0.1264981 0.05886,0.037539 0.130596,0.082033 0.07158,0.044458 0.156531,0.099695 0.08494,0.055061 0.156208,0.1000131 0.07112,0.044776 0.110712,0.069349 0.03977,0.024713 0.112303,0.071602 0.07269,0.046872 0.104823,0.069674 0.03229,0.022802 0.177524,0.1244175 0.145391,0.1014567 0.194225,0.1390214 0.04883,0.037584 0.189775,0.1374198 0.141093,0.099854 0.261671,0.1859016 0.120574,0.085883 0.191363,0.1340467 0.07094,0.048157 0.118509,0.078662 0.04772,0.030356 0.200429,0.133725 0.153025,0.1033852 0.240036,0.16262 0.08702,0.059403 0.166386,0.1159092 0.07938,0.056346 0.08829,0.064055 0.0087,0.00758 0.130756,0.093911 0.121848,0.086207 0.253239,0.1865433 0.131552,0.1003366 0.173705,0.1324407 0.04216,0.031942 0.15907,0.1263433 0.116918,0.094552 0.200909,0.1595706 0.084,0.065182 0.159388,0.1268223 0.07524,0.061799 0.119464,0.096964 0.04438,0.035175 0.08797,0.068557 0.04361,0.033401 0.10737,0.085078 0.06378,0.051861 0.100848,0.084767 0.03724,0.033081 0.101173,0.088616 0.06395,0.05539 0.132027,0.1244141 0.06809,0.068866 0.134258,0.1330865 0.06632,0.064048 0.144437,0.1483327 0.0781,0.084282 0.2017,0.2277995"></path></g></svg> 